<mxfile host="Electron" modified="2024-07-29T15:13:06.716Z" agent="Mozilla/5.0 (Windows NT 10.0; Win64; x64) AppleWebKit/537.36 (KHTML, like Gecko) draw.io/24.4.0 Chrome/120.0.6099.109 Electron/28.1.0 Safari/537.36" etag="l9xWv1hyhXjGwE2lq6-m" version="24.4.0" type="device">
  <diagram name="페이지-1" id="nOkOOAnpAIBTiRotNI_u">
    <mxGraphModel dx="4162" dy="301" grid="1" gridSize="10" guides="1" tooltips="1" connect="1" arrows="1" fold="1" page="1" pageScale="1" pageWidth="827" pageHeight="1169" math="0" shadow="0">
      <root>
        <mxCell id="0" />
        <mxCell id="1" parent="0" />
        <mxCell id="O3D1N8Hfds_VMY7Xwt8E-156" value="" style="rounded=0;whiteSpace=wrap;html=1;strokeColor=#666666;" parent="1" vertex="1">
          <mxGeometry x="-1580" y="1319" width="267" height="920" as="geometry" />
        </mxCell>
        <mxCell id="O3D1N8Hfds_VMY7Xwt8E-155" value="" style="rounded=0;whiteSpace=wrap;html=1;strokeColor=#666666;" parent="1" vertex="1">
          <mxGeometry x="-140" y="1319" width="280" height="920" as="geometry" />
        </mxCell>
        <mxCell id="O3D1N8Hfds_VMY7Xwt8E-153" value="" style="rounded=0;whiteSpace=wrap;html=1;strokeColor=#666666;" parent="1" vertex="1">
          <mxGeometry x="-1300" y="1319" width="1145" height="920" as="geometry" />
        </mxCell>
        <mxCell id="O3D1N8Hfds_VMY7Xwt8E-73" value="" style="edgeStyle=orthogonalEdgeStyle;rounded=0;orthogonalLoop=1;jettySize=auto;html=1;" parent="1" source="O3D1N8Hfds_VMY7Xwt8E-69" target="O3D1N8Hfds_VMY7Xwt8E-70" edge="1">
          <mxGeometry relative="1" as="geometry" />
        </mxCell>
        <mxCell id="O3D1N8Hfds_VMY7Xwt8E-69" value="시 작" style="strokeWidth=1;html=1;shape=mxgraph.flowchart.terminator;whiteSpace=wrap;fontSize=20;fontStyle=1" parent="1" vertex="1">
          <mxGeometry x="-810" y="1220" width="140" height="70" as="geometry" />
        </mxCell>
        <mxCell id="O3D1N8Hfds_VMY7Xwt8E-74" value="" style="edgeStyle=orthogonalEdgeStyle;rounded=0;orthogonalLoop=1;jettySize=auto;html=1;" parent="1" source="O3D1N8Hfds_VMY7Xwt8E-70" target="O3D1N8Hfds_VMY7Xwt8E-71" edge="1">
          <mxGeometry relative="1" as="geometry" />
        </mxCell>
        <mxCell id="O3D1N8Hfds_VMY7Xwt8E-70" value="[ 메인 ]&lt;div style=&quot;font-size: 20px;&quot;&gt;페이지&lt;/div&gt;" style="rounded=1;whiteSpace=wrap;html=1;fontSize=20;fontStyle=1" parent="1" vertex="1">
          <mxGeometry x="-832.5" y="1350" width="185" height="60" as="geometry" />
        </mxCell>
        <mxCell id="O3D1N8Hfds_VMY7Xwt8E-80" value="" style="edgeStyle=orthogonalEdgeStyle;rounded=0;orthogonalLoop=1;jettySize=auto;html=1;" parent="1" source="O3D1N8Hfds_VMY7Xwt8E-71" target="O3D1N8Hfds_VMY7Xwt8E-77" edge="1">
          <mxGeometry relative="1" as="geometry" />
        </mxCell>
        <mxCell id="O3D1N8Hfds_VMY7Xwt8E-81" value="" style="edgeStyle=orthogonalEdgeStyle;rounded=0;orthogonalLoop=1;jettySize=auto;html=1;" parent="1" source="O3D1N8Hfds_VMY7Xwt8E-71" target="O3D1N8Hfds_VMY7Xwt8E-78" edge="1">
          <mxGeometry relative="1" as="geometry" />
        </mxCell>
        <mxCell id="O3D1N8Hfds_VMY7Xwt8E-82" value="" style="edgeStyle=orthogonalEdgeStyle;rounded=0;orthogonalLoop=1;jettySize=auto;html=1;" parent="1" edge="1">
          <mxGeometry relative="1" as="geometry">
            <mxPoint x="-527" y="1515" as="sourcePoint" />
            <mxPoint x="-304" y="1641" as="targetPoint" />
            <Array as="points">
              <mxPoint x="-527" y="1514" />
              <mxPoint x="-304" y="1514" />
            </Array>
          </mxGeometry>
        </mxCell>
        <mxCell id="O3D1N8Hfds_VMY7Xwt8E-83" value="" style="edgeStyle=orthogonalEdgeStyle;rounded=0;orthogonalLoop=1;jettySize=auto;html=1;" parent="1" source="O3D1N8Hfds_VMY7Xwt8E-71" target="O3D1N8Hfds_VMY7Xwt8E-76" edge="1">
          <mxGeometry relative="1" as="geometry" />
        </mxCell>
        <mxCell id="O3D1N8Hfds_VMY7Xwt8E-71" value="입력 버튼 판단" style="rhombus;whiteSpace=wrap;html=1;fontSize=20;fontStyle=1" parent="1" vertex="1">
          <mxGeometry x="-827" y="1464.5" width="174" height="100" as="geometry" />
        </mxCell>
        <mxCell id="O3D1N8Hfds_VMY7Xwt8E-99" value="" style="edgeStyle=orthogonalEdgeStyle;rounded=0;orthogonalLoop=1;jettySize=auto;html=1;" parent="1" source="O3D1N8Hfds_VMY7Xwt8E-76" target="O3D1N8Hfds_VMY7Xwt8E-97" edge="1">
          <mxGeometry relative="1" as="geometry" />
        </mxCell>
        <mxCell id="O3D1N8Hfds_VMY7Xwt8E-85" value="" style="edgeStyle=orthogonalEdgeStyle;rounded=0;orthogonalLoop=1;jettySize=auto;html=1;" parent="1" source="O3D1N8Hfds_VMY7Xwt8E-77" target="O3D1N8Hfds_VMY7Xwt8E-84" edge="1">
          <mxGeometry relative="1" as="geometry" />
        </mxCell>
        <mxCell id="O3D1N8Hfds_VMY7Xwt8E-77" value="[ 로그인&amp;amp;회원가입 ]&lt;div style=&quot;font-size: 20px;&quot;&gt;페이지&lt;/div&gt;" style="rounded=1;whiteSpace=wrap;html=1;fontSize=20;fontStyle=1" parent="1" vertex="1">
          <mxGeometry x="-1048.5" y="1642" width="185" height="60" as="geometry" />
        </mxCell>
        <mxCell id="O3D1N8Hfds_VMY7Xwt8E-105" value="" style="edgeStyle=orthogonalEdgeStyle;rounded=0;orthogonalLoop=1;jettySize=auto;html=1;" parent="1" source="O3D1N8Hfds_VMY7Xwt8E-78" target="O3D1N8Hfds_VMY7Xwt8E-102" edge="1">
          <mxGeometry relative="1" as="geometry" />
        </mxCell>
        <mxCell id="O3D1N8Hfds_VMY7Xwt8E-104" value="" style="edgeStyle=orthogonalEdgeStyle;rounded=0;orthogonalLoop=1;jettySize=auto;html=1;" parent="1" source="O3D1N8Hfds_VMY7Xwt8E-79" target="O3D1N8Hfds_VMY7Xwt8E-103" edge="1">
          <mxGeometry relative="1" as="geometry" />
        </mxCell>
        <mxCell id="O3D1N8Hfds_VMY7Xwt8E-87" value="" style="edgeStyle=orthogonalEdgeStyle;rounded=0;orthogonalLoop=1;jettySize=auto;html=1;" parent="1" source="O3D1N8Hfds_VMY7Xwt8E-84" target="O3D1N8Hfds_VMY7Xwt8E-86" edge="1">
          <mxGeometry relative="1" as="geometry" />
        </mxCell>
        <mxCell id="O3D1N8Hfds_VMY7Xwt8E-89" value="" style="edgeStyle=orthogonalEdgeStyle;rounded=0;orthogonalLoop=1;jettySize=auto;html=1;" parent="1" source="O3D1N8Hfds_VMY7Xwt8E-84" target="O3D1N8Hfds_VMY7Xwt8E-88" edge="1">
          <mxGeometry relative="1" as="geometry" />
        </mxCell>
        <mxCell id="O3D1N8Hfds_VMY7Xwt8E-84" value="회원가입&lt;div&gt;클릭&lt;/div&gt;" style="rhombus;whiteSpace=wrap;html=1;fontSize=20;fontStyle=1" parent="1" vertex="1">
          <mxGeometry x="-1043" y="1758" width="174" height="100" as="geometry" />
        </mxCell>
        <mxCell id="O3D1N8Hfds_VMY7Xwt8E-94" value="" style="edgeStyle=orthogonalEdgeStyle;rounded=0;orthogonalLoop=1;jettySize=auto;html=1;" parent="1" source="O3D1N8Hfds_VMY7Xwt8E-86" target="O3D1N8Hfds_VMY7Xwt8E-92" edge="1">
          <mxGeometry relative="1" as="geometry" />
        </mxCell>
        <mxCell id="O3D1N8Hfds_VMY7Xwt8E-86" value="[ 회원가입 ]&lt;div style=&quot;font-size: 20px;&quot;&gt;페이지&lt;/div&gt;" style="rounded=1;whiteSpace=wrap;html=1;fontSize=20;fontStyle=1" parent="1" vertex="1">
          <mxGeometry x="-1274" y="1778" width="185" height="60" as="geometry" />
        </mxCell>
        <mxCell id="O3D1N8Hfds_VMY7Xwt8E-91" value="" style="edgeStyle=orthogonalEdgeStyle;rounded=0;orthogonalLoop=1;jettySize=auto;html=1;" parent="1" source="O3D1N8Hfds_VMY7Xwt8E-88" target="O3D1N8Hfds_VMY7Xwt8E-90" edge="1">
          <mxGeometry relative="1" as="geometry" />
        </mxCell>
        <mxCell id="O3D1N8Hfds_VMY7Xwt8E-140" value="" style="edgeStyle=orthogonalEdgeStyle;rounded=1;orthogonalLoop=1;jettySize=auto;html=1;entryX=1;entryY=0.7;entryDx=0;entryDy=0;exitX=0;exitY=0.5;exitDx=0;exitDy=0;dashed=1;endArrow=block;endFill=0;strokeWidth=1.5;curved=0;strokeColor=#4D4D4D;" parent="1" source="O3D1N8Hfds_VMY7Xwt8E-88" target="O3D1N8Hfds_VMY7Xwt8E-124" edge="1">
          <mxGeometry relative="1" as="geometry">
            <Array as="points">
              <mxPoint x="-1070" y="1946" />
              <mxPoint x="-1070" y="1685" />
            </Array>
          </mxGeometry>
        </mxCell>
        <mxCell id="O3D1N8Hfds_VMY7Xwt8E-88" value="ID, PW 입력" style="shape=parallelogram;perimeter=parallelogramPerimeter;whiteSpace=wrap;html=1;fixedSize=1;fontSize=20;fontStyle=1" parent="1" vertex="1">
          <mxGeometry x="-1048.5" y="1907" width="185" height="75" as="geometry" />
        </mxCell>
        <mxCell id="O3D1N8Hfds_VMY7Xwt8E-90" value="로그인 성공 여부&lt;div&gt;출력&lt;/div&gt;" style="rounded=0;whiteSpace=wrap;html=1;fontSize=20;fontStyle=1" parent="1" vertex="1">
          <mxGeometry x="-1048.5" y="2048" width="185" height="76" as="geometry" />
        </mxCell>
        <mxCell id="O3D1N8Hfds_VMY7Xwt8E-96" value="" style="edgeStyle=orthogonalEdgeStyle;rounded=0;orthogonalLoop=1;jettySize=auto;html=1;" parent="1" source="O3D1N8Hfds_VMY7Xwt8E-92" target="O3D1N8Hfds_VMY7Xwt8E-95" edge="1">
          <mxGeometry relative="1" as="geometry" />
        </mxCell>
        <mxCell id="O3D1N8Hfds_VMY7Xwt8E-141" value="" style="edgeStyle=orthogonalEdgeStyle;rounded=0;orthogonalLoop=1;jettySize=auto;html=1;dashed=1;endArrow=none;endFill=0;strokeWidth=2;strokeColor=#4D4D4D;" parent="1" source="O3D1N8Hfds_VMY7Xwt8E-92" edge="1">
          <mxGeometry relative="1" as="geometry">
            <mxPoint x="-1060" y="1945" as="targetPoint" />
            <Array as="points">
              <mxPoint x="-1064" y="1946" />
              <mxPoint x="-1060" y="1946" />
            </Array>
          </mxGeometry>
        </mxCell>
        <mxCell id="O3D1N8Hfds_VMY7Xwt8E-92" value="사용자 각 정보&lt;div&gt;입력&lt;/div&gt;" style="shape=parallelogram;perimeter=parallelogramPerimeter;whiteSpace=wrap;html=1;fixedSize=1;fontSize=20;fontStyle=1" parent="1" vertex="1">
          <mxGeometry x="-1274" y="1908" width="185" height="75" as="geometry" />
        </mxCell>
        <mxCell id="O3D1N8Hfds_VMY7Xwt8E-95" value="회원가입&lt;div&gt;성공 여부 출력&lt;/div&gt;" style="rounded=0;whiteSpace=wrap;html=1;fontSize=20;fontStyle=1" parent="1" vertex="1">
          <mxGeometry x="-1274" y="2048" width="185" height="76" as="geometry" />
        </mxCell>
        <mxCell id="O3D1N8Hfds_VMY7Xwt8E-101" value="" style="edgeStyle=orthogonalEdgeStyle;rounded=0;orthogonalLoop=1;jettySize=auto;html=1;" parent="1" source="O3D1N8Hfds_VMY7Xwt8E-97" target="O3D1N8Hfds_VMY7Xwt8E-100" edge="1">
          <mxGeometry relative="1" as="geometry" />
        </mxCell>
        <mxCell id="N7wIYfbzn6Of7ngzT6N6-1" value="" style="edgeStyle=orthogonalEdgeStyle;rounded=0;orthogonalLoop=1;jettySize=auto;html=1;entryX=1;entryY=0.5;entryDx=0;entryDy=0;" edge="1" parent="1" source="O3D1N8Hfds_VMY7Xwt8E-97" target="O3D1N8Hfds_VMY7Xwt8E-70">
          <mxGeometry relative="1" as="geometry">
            <Array as="points">
              <mxPoint x="-410" y="1808" />
              <mxPoint x="-410" y="1380" />
            </Array>
          </mxGeometry>
        </mxCell>
        <mxCell id="O3D1N8Hfds_VMY7Xwt8E-97" value="로그인&lt;div&gt;여부&lt;/div&gt;" style="rhombus;whiteSpace=wrap;html=1;fontSize=20;fontStyle=1" parent="1" vertex="1">
          <mxGeometry x="-614.5" y="1758" width="174" height="100" as="geometry" />
        </mxCell>
        <mxCell id="O3D1N8Hfds_VMY7Xwt8E-100" value="검색 기록 출력" style="rounded=0;whiteSpace=wrap;html=1;fontSize=20;fontStyle=1" parent="1" vertex="1">
          <mxGeometry x="-620" y="1908" width="185" height="76" as="geometry" />
        </mxCell>
        <mxCell id="O3D1N8Hfds_VMY7Xwt8E-151" value="" style="edgeStyle=orthogonalEdgeStyle;rounded=1;orthogonalLoop=1;jettySize=auto;html=1;dashed=1;endArrow=none;endFill=0;startArrow=block;startFill=0;strokeWidth=1.5;curved=0;strokeColor=#4D4D4D;" parent="1" source="O3D1N8Hfds_VMY7Xwt8E-102" edge="1">
          <mxGeometry relative="1" as="geometry">
            <mxPoint x="-740" y="2160" as="targetPoint" />
            <Array as="points">
              <mxPoint x="-740" y="2130" />
              <mxPoint x="-740" y="2130" />
            </Array>
          </mxGeometry>
        </mxCell>
        <mxCell id="O3D1N8Hfds_VMY7Xwt8E-102" value="작가 목록 출력" style="rounded=0;whiteSpace=wrap;html=1;fontSize=20;fontStyle=1" parent="1" vertex="1">
          <mxGeometry x="-832.5" y="1770" width="185" height="76" as="geometry" />
        </mxCell>
        <mxCell id="O3D1N8Hfds_VMY7Xwt8E-108" value="" style="edgeStyle=orthogonalEdgeStyle;rounded=0;orthogonalLoop=1;jettySize=auto;html=1;" parent="1" source="O3D1N8Hfds_VMY7Xwt8E-103" target="O3D1N8Hfds_VMY7Xwt8E-107" edge="1">
          <mxGeometry relative="1" as="geometry" />
        </mxCell>
        <mxCell id="O3D1N8Hfds_VMY7Xwt8E-164" value="" style="edgeStyle=orthogonalEdgeStyle;rounded=0;orthogonalLoop=1;jettySize=auto;html=1;exitX=1;exitY=0.5;exitDx=0;exitDy=0;endArrow=none;endFill=0;" parent="1" source="O3D1N8Hfds_VMY7Xwt8E-103" edge="1">
          <mxGeometry relative="1" as="geometry">
            <mxPoint x="-410" y="1380" as="targetPoint" />
            <Array as="points">
              <mxPoint x="-190" y="1808" />
              <mxPoint x="-190" y="1380" />
            </Array>
          </mxGeometry>
        </mxCell>
        <mxCell id="O3D1N8Hfds_VMY7Xwt8E-103" value="로그인&lt;div&gt;여부&lt;/div&gt;" style="rhombus;whiteSpace=wrap;html=1;fontSize=20;fontStyle=1" parent="1" vertex="1">
          <mxGeometry x="-391" y="1758" width="174" height="100" as="geometry" />
        </mxCell>
        <mxCell id="O3D1N8Hfds_VMY7Xwt8E-144" value="" style="edgeStyle=orthogonalEdgeStyle;rounded=1;orthogonalLoop=1;jettySize=auto;html=1;entryX=0.5;entryY=1;entryDx=0;entryDy=0;dashed=1;endArrow=block;endFill=0;strokeWidth=1.5;curved=0;strokeColor=#4D4D4D;" parent="1" source="O3D1N8Hfds_VMY7Xwt8E-106" target="O3D1N8Hfds_VMY7Xwt8E-142" edge="1">
          <mxGeometry relative="1" as="geometry">
            <mxPoint x="-260" y="2204" as="targetPoint" />
            <Array as="points">
              <mxPoint x="-304" y="2200" />
              <mxPoint x="-1448" y="2200" />
              <mxPoint x="-1448" y="2059" />
            </Array>
          </mxGeometry>
        </mxCell>
        <mxCell id="O3D1N8Hfds_VMY7Xwt8E-106" value="작가 정보 출력" style="rounded=0;whiteSpace=wrap;html=1;fontSize=20;fontStyle=1" parent="1" vertex="1">
          <mxGeometry x="-396.5" y="2048" width="185" height="76" as="geometry" />
        </mxCell>
        <mxCell id="O3D1N8Hfds_VMY7Xwt8E-109" value="" style="edgeStyle=orthogonalEdgeStyle;rounded=0;orthogonalLoop=1;jettySize=auto;html=1;" parent="1" source="O3D1N8Hfds_VMY7Xwt8E-107" target="O3D1N8Hfds_VMY7Xwt8E-106" edge="1">
          <mxGeometry relative="1" as="geometry" />
        </mxCell>
        <mxCell id="O3D1N8Hfds_VMY7Xwt8E-130" value="" style="edgeStyle=orthogonalEdgeStyle;rounded=1;orthogonalLoop=1;jettySize=auto;html=1;entryX=0;entryY=0.5;entryDx=0;entryDy=0;dashed=1;endArrow=block;endFill=0;strokeWidth=1.5;curved=0;strokeColor=#4D4D4D;" parent="1" source="O3D1N8Hfds_VMY7Xwt8E-107" target="O3D1N8Hfds_VMY7Xwt8E-120" edge="1">
          <mxGeometry relative="1" as="geometry">
            <mxPoint x="-84" y="1945.5" as="targetPoint" />
            <Array as="points">
              <mxPoint x="-110" y="1946" />
              <mxPoint x="-110" y="1867" />
            </Array>
          </mxGeometry>
        </mxCell>
        <mxCell id="O3D1N8Hfds_VMY7Xwt8E-107" value="작품 촬영" style="shape=parallelogram;perimeter=parallelogramPerimeter;whiteSpace=wrap;html=1;fixedSize=1;fontSize=20;fontStyle=1" parent="1" vertex="1">
          <mxGeometry x="-396.5" y="1908" width="185" height="75" as="geometry" />
        </mxCell>
        <mxCell id="O3D1N8Hfds_VMY7Xwt8E-111" value="" style="sketch=0;outlineConnect=0;fontColor=#232F3E;gradientColor=none;fillColor=#000000;strokeColor=none;dashed=0;verticalLabelPosition=bottom;verticalAlign=top;align=center;html=1;fontSize=12;fontStyle=0;aspect=fixed;pointerEvents=1;shape=mxgraph.aws4.container_registry_image;" parent="1" vertex="1">
          <mxGeometry x="-95" y="1392" width="60" height="60" as="geometry" />
        </mxCell>
        <mxCell id="O3D1N8Hfds_VMY7Xwt8E-113" value="" style="shape=image;verticalLabelPosition=bottom;labelBackgroundColor=default;verticalAlign=top;aspect=fixed;imageAspect=0;image=data:image/png,iVBORw0KGgoAAAANSUhEUgAAAgAAAAIACAYAAAD0eNT6AAAAAXNSR0IArs4c6QAAIABJREFUeAHtnQfYbFd1nj8hhJCoBkQz2KY3F4pFMQLTRbEA25CEEjtAIkfG9G4TGwJElNBNNS6AeTDCQACBTSCmPAYFCA5VYBAgYapAogskgZJZuf/knnv/mX/OzNnrzP7Ofs/z3OefO3POnrXfb529vzllHYkli8BVJN1e0gmSni/pbZJOkfRxSZ+XdLakcyX9H/7BgBwgBxrNgRgDYyyMMTHGxhgjY6yMMTPGzttJirGUBQLVEjhU0q9Keqykv5f0vUZ3ZswMho4cIAcyciDG1L+T9JidsTbGXBYIbI3AxSTdX9KbJH2bCZ9fcOQAOUAOjJYDcdQgxt77STpya7MAX9wUgQtJOkbSy/iVP9qOnvFrgjb5lUoOTCcHzpF0kqTjJHFkoKkpeZzOhsN8mKTTcfhM/OQAOUAOVJsDX5xdU/BQSUeMMzXwLVMmcPGdif+r7PDV7vD8kpvOLzm0RMtSOXDmbGJ6kqRLT3mCom85BC4q6Yk7V6eWSkjaYXAjB8gBcmDcHDhL0h9KOjxnqqDVqRG4raRT+cXPL35ygBwgByaTA5+TdOepTVb0pxyBK0t6FTv8ZHZ4fmmN+0sL3vB2yIG3Svq5ctMGLU2BQNxKwr37DGAOAxgxkqfkwLAc+K6k+0xh4qIPwwjEuf6oOMUOBQNygBwgB9rKgTjiSw2BYXOo7dbXkfQxJn/MDzlADpADzebApyTdwHYWI/CNCNxV0g/Y6Zvd6fml19YvPfRG771yIE7/HrvRTMJGdgSifO95TP5M/uQAOUAOkAM7OXC+pAfazWYEvBaBqBD1U3Z6dnpygBwgB8iBg3Lggp2HDa01qbCyB4ETDxJ7r0NCfMYhQ3KAHCAH2syBp3lMaUTZl8AfMfnj9skBcoAcIAd65sDj+04urFc3gd+RFId2cPMwIAfIAXKAHOiTAzFnPKjuqY3oVhG4u6S4uKOP4KwDJ3KAHCAHyIF5DvxE0m+tmmT4vE4CN5f0IyZ/zA85QA6QA+TAhjlwjqSj65ziiGoZgZ+R9IUNBZ+7P/7yS4AcIAfIAXLgDEmXWTbZ8H5dBA6R9ObKJv9zJUXFqTfMHksZdyM8VtLxku47e//e/IMBOUAONJoDMQbGWBhjYoyNb9x5GmuMmTWZrxi7Y25hqZzAIypInLiA5AOzhHmypNvwLOrKM4bwIACB2gjEc1ri0ez/eVal75RKLuSOOjIsFRO4iaRtOsc47fAns8cKX71iRoQGAQhAwI3ANWYBP0nSF7f4Ay/mlhu6gWsl3gtJ+p9bSo5PzK45iNsNL9wKbPoJAQhAYAsEYpw/bvbvI1sa6z80OyoRMbBURuCELSTEV3aeK825ocqSgXAgAIFJE4hJ+H6SvraFcT+uWWCpiMDlJZ09YiLE8wSeJ+mSFTEgFAhAAAKtEbjU7Ar9F4z8jJdvSbpca6Br7u9fjTj5f13SHWqGQWwQgAAEGiMQj/M9c8R54M8b41ttd39xxCtE3yfpStWSIDAIQAAC7RL4WUnvH8kExFHg67WLup6ev2Ykwf+bpCPq6TaRQAACEIDAQQQOl/T6keaEVx703fx3ZALXlBT1mrMLRrxC0qEj942vgwAEIACB9QnEWP0XI8wL8ZwZbvleX59iW8TEnD35v5bbPorpRUMQgAAExiAQdwm8boT54aVjdIbv2E0gzvdkF/15h6SL7P5q3oEABCAAgcoJxOmAdyWbgB9zXdh2suAJycKeJiluMWGBAAQgAAFPApce4cFwj/FE4x11VN/LOvx/nqR4nDALBCAAAQh4E4jH+WYeLf6kNx6/6EPQrMk/2n2kHxIihgAEIACBJQTiaYOZc8aNlnwvbycQeGGimB+npn+CYjQJAQhAYHsE4jktH02cN56zva619c1xdWdWxaco7nCLtnDSWwhAAAJNELhVYtG4eCYBz4QZIY1unOji4rYRFghAAAIQmCaBNyTOH78yTWR19SquuMw4l3OBpDAXLBCAAAQgME0CN0w8CvCIaSKrq1dvSzIAb62rm0QDAQhAAAIJBJhDEqCO0WRcyPHdJANw1zE6wHdAAAIQgMBWCRyXNId8jwvIc3W9WZJwcQFHmAsWCEAAAhCYNoHDJH0jaS6JW9RZkgg8KEm0ZyfFS7MQgAAEIFAfgecnzSUPqK+r04noWUmi3W46iOgJBCAAAQisIHBs0lzy9BXfy8cDCLwlQbR4mMMRA2JiUwhAAAIQ8CJwpKQY+0vfUfYmLwxe0f5zgmDv9kJAtBCAAAQgUIDAexPmk08XiIsmFhCICzfOTxCM8/8LYPMWBCAAgYkTeG7CfBIPkuOC8oTEuWKCWHH45/iEWGkSAhCAAATqJnBC0pxyVN3d9ozuWkli3doTB1FDAAIQgMAAArdNmlOuPiAmNl1CIB63WPqCjWjvGku+j7chAAEIQGC6BLJ+VEa5YZbCBOKXeoYBuHzhOGkOAhCAAATqJ5B1WvmY+rvuF+HdkgxA3A7CAgEIQAACbRG4WNKccpe2MI7T23slicUznMfRj2+BAAQgUBOBGPszjirHXMVSmMC9k8QqHCbNQQACEICACYEMAxBzFUthAhiAwkBpDgIQgEDjBDAAJgmAATARijAhAAEImBDAAJgIhQEwEYowIQABCJgQwACYCIUBMBGKMCEAAQiYEMAAmAiFATARijAhAAEImBDAAJgIhQEwEYowIQABCJgQwACYCIUBMBGKMCEAAQiYEMAAmAiFATARijAhAAEImBDAAJgIhQEwEYowIQABCJgQwACYCIUBMBGKMCEAAQiYEMAAmAiFATARijAhAAEImBDAAJgIhQEwEYowIQABCJgQwACYCIUBMBGKMCEAAQiYEMAAmAiFATARijAhAAEImBDAAJgIhQEwEYowIQABCJgQwACYCIUBMBGKMCEAAQiYEMAAmAiFATARijAhAAEImBDAAJgIhQEwEYowIQABCJgQwACYCIUBMBGKMCEAAQiYEMAAmAiFATARijAhAAEImBDAAJgIhQEwEYowIQABCJgQwACYCIUBMBGKMCEAAQiYEMAAmAiFATARijAhAAEImBDAAJgIhQEwEYowIQABCJgQwACYCIUBMBGKMCEAAQiYEMAAmAiFATARijAhAAEImBDAAJgIhQEwEYowIQABCJgQwACYCIUBMBGKMCEAAQiYEMAAmAiFATARijAhAAEImBDAAJgIhQEwEYowIQABCJgQwACYCIUBMBGKMCEAAQiYEMAAmAiFATARijAhAAEImBDAAJgIhQEwEYowIQABCJgQwACYCIUBMBGKMCEAAQiYEMAAmAiFATARijAhAAEImBDAAJgIhQEwEYowIQABCJgQwACYCIUBMBGKMCEAAQiYEMAAmAiFATARijAhAAEImBDAAJgIhQEwEYowIQABCJgQwACYCIUBMBGKMCEAAQiYEMAAmAiFATARijAhAAEImBDAAJgIhQEwEYowIQABCJgQwACYCIUBMBGKMCEAAQiYEMAAmAiFATARijAhAAEImBDAAJgIhQEwEYowIQABCJgQwACYCIUBMBGKMCEAAQiYEMAAmAiFATARijAhAAEImBDAAJgIhQEwEYowIQABCJgQwACYCIUBMBGKMCEAAQiYEMAAmAiFATARijAhAAEImBDAAJgIhQEwEYowIQABCJgQwACYCIUBMBGKMCEAAQiYEMAAmAiFATARijAhAAEImBDAAJgIhQEwEYowIQABCJgQwACYCIUBMBGKMCEAAQiYEMAAmAiFATARijAhAAEImBDAAJgIhQEwEYowIQABCJgQwACYCIUBMBGKMCEAAQiYEMAAmAiFATARijAhAAEImBDAAJgIhQEwEYowIQABCJgQwACYCIUBMBGKMCEAAQiYEMAAmAiFATARijAhAAEImBDAAJgIhQEwEYowIQABCJgQwACYCIUBMBGKMCEAAQiYEMAAmAiFATARijAhAAEImBDAAJgIhQEwEYowIQABCJgQwACYCIUBMBGKMCEAAQiYEMAAmAiFATARijAhAAEImBDAAJgIhQEwEYowIQABCJgQwACYCIUBMBGKMCEAAQiYEMAAmAiFATARijAhAAEImBDAAJgIhQEwEYowIQABCJgQwACYCIUBMBGKMCEAAQiYEMAAmAiFATARijAhAAEImBDAAJgIhQEwEYowIQABCJgQwACYCIUBMBGKMCEAAQiYEMAAmAiFATARijAhAAEImBDAAJgIhQEwEYowIQABCJgQwACYCIUBMBGKMCEAAQiYEMAAmAiFATARijAhAAEImBDAAJgIhQEwEYowIQABCJgQwACYCIUBMBGKMCEAAQiYEMAAmAiFATARijAhAAEImBDAAJgIhQEwEYowIQABCJgQwACYCIUBMBGKMCEAAQiYEMAAmAiFATARijAhAAEImBDAAJgIhQEwEYowIQABCJgQwACYCIUBMBGKMCEAAQiYEMAAmAiFATARijAhAAEImBDAAJgIhQEwEYowIQABCJgQwACYCIUBMBGKMCEAAQiYEMAAmAiFATARijAhAAEImBDAAJgIhQEwEYowIQABCJgQwACYCIUBMBGKMCEAAQiYEMAAmAiFATARijAhAAEImBDAAJgIhQEwEYowIQABCJgQwACYCIUBMBGKMCEAAQiYEMAAmAiFATARijAhAAEImBDAAJgIhQEwEYowIQABCJgQwACYCIUBMBGKMCEAAQiYEMAAmAiFATARijAhAAEImBDAAJgIhQEwEYowIQABCJgQwACYCIUBMBGKMCEAAQiYEMAAmAiFATARijAhAAEImBDAAJgIhQEwEYowIQABCJgQwACYCIUBMBGKMCEAAQiYEMAAmAiFATARijAhAAEImBDAAJgIhQEwEYowIQABCJgQwACYCIUBMBGKMCEAAQiYEMAAmAiFATARijAhAAEImBDAAJgIhQEwEYowIQABCJgQwACYCIUBMBGKMCEAAQiYEMAAmAiFATARijAhAAEImBDAAJgIhQEwEYowIQABCJgQwACYCIUBMBGKMCEAAQiYEMAAmAiFATARijAhAAEImBDAAJgIhQEwEYowIQABCJgQwACYCIUBMBGKMCEAAQiYEMAAmAiFATARijAhAAEImBDAAJgIhQEwEYowIQABCJgQwACYCIUBMBGKMCEAAQiYEMAAmAiFATARijAhAAEImBDAAJgIhQEwEYowIQABCJgQwACYCIUBMBGKMCEAAQiYEMAAmAiFATARijAhAAEImBDAAJgIhQEwEYowIQABCJgQwACYCIUBMBGKMCEAAQiYEMAAmAiFATARijAhAAEImBDAAJgIhQEwEYowIQABCJgQwACYCIUBMBGKMCEAAQiYEMAAmAiFATARijAhAAEImBDAAJgIhQEwEYowIQABCJgQwACYCIUBMBGKMCEAAQiYEMAAmAiFATARijAhAAEImBDAAJgIhQEwEYowIQABCJgQwACYCIUBMBGKMCEAAQiYEMAAmAiFATARijAhAAEImBDAAJgIhQEwEYowIQABCJgQwACYCIUBMBGKMCEAAQiYEMAAmAiFATARijAhAAEImBDAAJgIhQEwEYowIQABCJgQwACYCIUBMBGKMCEAAQiYEMAAmAiFATARijAhAAEImBDAAJgIhQEwEYowIQABCJgQwACYCIUBMBGKMCEAAQiYEMAAmAiFATARijAhAAEImBDAAJgIhQEwEYowIQABCJgQwACYCIUBMBGKMCEAAQiYEMAAmAiFATARijAhAAEImBDAAJgIhQEwEYowIQABCJgQwACYCIUBMBGKMCEAAQiYEMAAmAiFATARijAhAAEImBDAAJgIhQEwEYowIQABCJgQwACYCIUBMBGKMCEAAQiYEMAAmAiFATARijAhAAEImBDAAJgIhQEwEYowIQABCJgQwACYCIUBMBGKMCEAAQiYEMAAmAiFATARijAhAAEImBDAAJgIhQEwEYowIQABCJgQwACYCIUBMBGKMCEAAQiYEMAAmAiFATARijAhAAEImBDAAJgIhQEwEYowIQABCJgQwACYCIUBMBGKMCEAAQiYEMAAmAiFATARijAhAAEImBDAAJgIhQEwEYowIQABCJgQwACYCIUBMBGKMCEAAQiYEMAAmAiFATARijAhAAEImBDAAJgIhQEwEYowIQABCJgQwACYCIUBMBGKMCEAAQiYEMAAmAiFATARijAhAAEImBDAAJgIhQEwEYowIQABCJgQwACYCIUBMBGKMCEAAQiYEMAAmAiFATARijAhAAEImBDAAJgIhQEwEYowIQABCJgQwACYCIUBMBGKMCEAAQiYEMAAmAiFATARijAhAAEImBDAAJgIhQEwEYowIQABCJgQwACYCIUBMBGKMCEAAQiYEMAAmAiFATARijAhAAEImBDAAJgIhQEwEYowIQABCJgQwACYCIUBMBGKMCEAAQiYEMAAmAiFATARijAhAAEImBDAAJgIhQEwEYowIQABCJgQwACYCIUBMBGKMCEAAQiYEMAAmAiFATARijAhAAEImBDAAJgIhQEwEYowIQABCJgQwACYCIUBMBGKMCEAAQiYEMAAmAiFATARijAhAAEImBDAAJgIhQEwEYowIQABCJgQwACYCIUBMBGKMCEAAQiYEMAAmAiFATARijAhAAEImBDAAJgIhQEwEYowIQABCJgQwACYCIUBMBGKMCEAAQiYEMAAmAiFATARijAhAAEImBDAAJgIhQEwEYowIQABCJgQwACYCIUBMBGKMCEAAQiYEMAAmAiFATARijAhAAEImBDAAJgIhQEwEYowIQABCJgQwACYCIUBMBGKMCEAAQiYEMAAmAiFATARijAhAAEImBDAAJgIhQEwEYowIQABCJgQwACYCIUBMBGKMCEAAQiYEMAAmAiFATARijAhAAEImBDAAJgIhQEwEYowIQABCJgQwACYCIUBMBGKMCEAAQiYEMAAmAiFATARijAhAAEImBDAAJgIhQEwEYowIQABCJgQwACYCIUBMBGKMCEAAQiYEMAAmAiFATARijAhAAEImBDAAJgIhQEwEYowIQABCJgQwACYCIUBMBGKMCEAAQiYEMAAmAiFATARijAhAAEImBDAAJgIhQEwEYowIQABCJgQwACYCIUBMBGKMCEAAQiYEMAAmAiFATARijAhAAEImBDAAJgIhQEwEYowIQABCJgQwACYCIUBMBGKMCEAAQiYEMAAmAiFATARijAhAAEImBDAAJgIhQEwEYowIQABCJgQwACYCIUBMBGKMCEAAQiYEMAAmAiFATARijAhAAEImBDAAJgIhQEwEYowIQABCJgQwACYCIUBMBGKMCEAAQiYEMAAmAiFATARijAhAAEImBDAAJgIhQEwEYowIQABCJgQwACYCIUBMBGKMCEAAQiYEMAAmAiFATARijAhAAEImBDAAJgIhQEwEYowIQABCJgQwACYCIUBMBGKMCEAAQiYEMAAmAiFATARijAhAAEImBDAAJgIhQEwEYowIQABCJgQwACYCIUBMBGKMCEAAQiYEMAAmAiFATARijAhAAEImBDAAJgIhQEwEYowIQABCJgQwACYCIUBMBGKMCEAAQiYEMAAmAiFATARijAhAAEImBDAAJgIhQEwEYowIQABCJgQwACYCIUBMBGKMCEAAQiYEMAAmAiFATARijAhAAEImBDAAJgIhQEwEYowIQABCJgQwACYCIUBMBGKMCEAAQiYEMAAmAiFATARijAhAAEImBDAAJgIhQEwEYowIQABCJgQwACYCIUBMBGKMCEAAQiYEMAAmAiFATARijAhAAEImBDAAJgIhQEwEYowIQABCJgQwACYCIUBMBGKMCEAAQiYEMAAmAiFATARijAhAAEImBDAAJgIhQEwEYowIQABCJgQwACYCIUBMBGKMCEAAQiYEMAAmAiFATARijAhAAEImBDAAJgIhQEwEYowIQABCJgQwACYCIUBMBGKMCEAAQiYEMAAmAiFATARijAhAAEImBDAAJgIhQEwEYowIQABCJgQwACYCIUBMBGKMCEAAQiYEMAAmAiFATARijAhAAEImBDAAJgIhQEwEYowIQABCJgQwACYCIUBMBGKMCEAAQiYEMAAmAiFATARijAhAAEImBDAAJgIhQEwEYowIQABCJgQwACYCIUBMBGKMCEAAQiYEMAAmAiFATARijAhAAEImBDAAJgIhQEwEYowIQABCJgQwACYCIUBMBGKMCEAAQiYEMAAmAiFAcgX6gaS/r2kZ0l6q6RPS/oXSWdLythRsto8dyfud0t6nKRr5qPb+jccJek3JD1a0sslvVfSZwz0+8FOnr1e0r+VdImtk9wXwFUl/bGkd0j66s4+cJakD0r6U0m/VkmcWWFcRdJ/kvR3kr620/9vSnq/pOfP3r9Z1heP3G7GGBRzFUthAhiAwkAlHS7ptyW9VtLXzSb5dXbcn0h6haQrlUe4tRYPm01Gd5H0PEkfn01WF0xEvzMlPUTSoVsiezlJr5YUObMqxz4s6egtxZn1tdH/V0o6v0f/PyTpV7MCGandVRpv8jkGIEE8DEA5qNeW9KLZQBu/aDZJcNdt4pec+y+XG+9M+t+YuHZ/P+vnpculfK+Wjtn5tbtOfsdE+fherde/0q02+CHg3v91tO67LgYgIdcxAMOh/rKkv5kd2vvpxCePvXbUc0xNwLGS3teYbv80Ox11seFp36uFW0r63gC+T+71LfWuFJP/9wf0/0/q7dqeke01Vmz6GQZgT+SbfYgB2IxbbBW/pOK8ZZ/DmpsmvdN2cSTgipvjHHXLO0iKQ81OfEvGetIItC+7wS/fRX2M02mOSxz2L3EK8LcMO79Ix6HvYQASEgEDsBnU2ClL7NxDd4ratv+zzXCOtlVcr/Cqhif+br7cKZl6nPPuft+mr2M/u1RyrBnN/3Wh/sfFgm7931TrvbbDACRkKQZgPahxgd8LC+3YeyW762dxNOQa6yEdbe3jBx6OdtVkWdxxsVnW8nM9L3hbFtvB78cFjE5LXO1f8sjgw5w6nzQ+YgASkgAD0B/qFSTFoHnw4MT/D2Ty2P5IR1kzboF7DbotzNurJykQ565L7henJsWZ1Wzc6liy/5/MCjSp3ZJ9n7eFAUgQCwPQD2oMlJ8rvFPPE3tqf6NOQC3L9SR9Ft2WTka/nyTUOxOYXzcp1oxmP1a4/3E7alxT4bJkjGkYgAT1MQCrocbtfXGBW0ZST7HN01cjHWWNuJc87n+fIuNSfYriVBlLxu2Uj8kINKHNOP1RSp9uO7dJiDWryW7cpV5jABLUwgDsDfXKkr6YtEOX2jFqa+fHeyMd5dMo5hPV8GpjU1s8UZwnYxly69syRnG7psPy4KS8i5x2WZZpOOR9DECC+hiA5VAvuVMNbkjStrht/Prb5nLbWRGZMCEtsl+3z3FBa8by3QT+URznMhnBFm4zyvyuq0Of9e9cOM7M5vr0Z911MAAJimEAlkON4j7rJinrSx9ZjjT9k5twpf9aOfuEJEWitn/GvnC/pHhLNRsFln6U1PdfKBXkCO1kaI8BSBAOA7AY6glJO3HGjlFbm89ZjDT93atJyjj3XBvfkvFEpb6M5SVJ+0+Y8pqXeyb1O8qLH1Jzxw+KrWSOztvCABwEucR/MQC7KcZ97FHadp54/F2PxTYuVor6DC1X9tskR6PAzoV2p3+Rd6JQ1iYxrdrmO5IuUiTCnEb+Iqnfr8sJN63VVTpu8jkGIEEuDMBuqCcn7cSbJL3bNnHodxu/VF6AZmtPuI/cnfrF3rl44qHw2xWLsmxDYaaial/GPnv/sqGmt5bBAAOQIBsG4ECov5m0A2fsELW1GZXPtvE89+Mm9NjesTSN2ghx1CRziScPZvRnW6eYVrG6eVJ/Y7+K5wo4LRm6YwASMgADsB9q/HKNZ8BnJG8LbWb+otyv0oGvjuQ2zbXzNZ7O90sHYkz53x8k7UunpUQ7vNGnJvXX5fbHLsGM8Q4D0CVc6DUGYD/IrAt4MnaGmtqMKmXbemzriUmDbk18S8byTUm/vj/lU19lFcQJHjVWBSxd/W+ue22ltfskzTz2kn8xAH3Ir7kOBmA/sFOYTNb+Nfnl2VGTbT2uNCo0notmvTWLEs1Ztf/370UHvso6olZbVcAwO2GES05487ainLXbMo+95F8MQEIWYAD2Qb1B0s5bcgeopa0Y6OKhSI+SFIfgt7X8JZqtnHB+KOlNszsk7rYlkZ6WpNF7t9SfZV+bVf3v88u+sPL3M8YqDECC6BiAfVCfnjRQLdoR4hzmn0p6xOxBNfeVFBo4/LuHpJtJOiohD9dtMoqinDeiZnMd44jHa2ePen2ipP9QsW5RNe4XJR2xLtjC698iSaO4MK6mh+NkXfD43MJ6jNXcfH8p+RcDkKAeBmAf1C8lDVTdHSBKhEalOpbhBF40gl5z7eKZAnGb4Y2Hh91cC3FrXNQbmLMs+beWqoAt3vK4KpFL6jxvCwOwivoGn2MA9l1QNE+yjL8xgdxrA23YZDGBOO0QV7JnaNVtM35lxpEat1uwFlPb3rtZp2pqqQqYVfQonqdQc9GjvTKqux+Veo0B2Iv4hp9hAKTMsr9nS7rRhtqw2WIC8cuv1KCyrJ1/kXTM4q/n3TUJZE2QURXwsDVjyVid6n+7qS7br4a8jwHYzXnwOxgAKeuhP/H0sjsOVogGDiaQdb51Pjh9UtLPHvyl/H9jApmHyOPJj9tcqP63mP58Xyr5FwOwmPWgdzEAUgz4JRN13latFcsGJcyWN47Hwcah+Tnj0n8/VdnFZVvGXezrs0zbtvcxqv8tTpHS+2W0hwFYzHrQu60bgEOTnh0f5+84dzwoNRdunFmqOZ649vMLv5U3hxKYalXArNscHav/dXMEA9ClUfHr1g1AFEbJSNZXVqy5c2gvTNKLXxi5WTHVqoBU/1ucNxljKkcAFrMe9G7rBuCmSRNZjVFDAAAbmklEQVTKbw9ShY2XEcg6XRO3aLLkEphaVUCq/y3PFwzAcjZVfdK6AYhHi2Yk67WqUnkawcTT67LO/0fBGpZcAlmHy7dVFZDqf8vzJWNM5QjAct4bf9K6AYjqdhnJGlc+s5QlEJXtMrT6QNkwaW0JgalVBcy6sNG1+l9X9oz9FAPQJVzodesGoPX+F0qjUZqJ0yoZA0v8kmPJJzClqoCZtzbGUUn3JWM/xQAkZEXrE2Dr/U9IqbQmH5dkAK6ZFjENH0xgKlUBs4obOVf/62qNAejSqPh16xNg6/2vODV3hXZiggH41q5v4Y1MAlkT59hVAan+t3eWYAD25lPNp61PgK33v5pE7BFIxi2Ap/T4XlYpRyDz0PlYVQGp/rc6HzAAqxlVsUbrE2Dr/a8iCXsG8VcJRwBO7vndrFaOQNbFc2NVBaT63+pcwACsZlTFGq1PgK33v4ok7BnEaxMMwBt7fjerlSPgXhUw63ZG9+p/3QzBAHRpVPy69Qmw9f5XnJq7QntFggF4x65v4Y1sAu5VAan+tzpDMACrGVWxRusTYOv9ryIJewYR90eXHlg+0fO7Wa0sgayqgI8uG+au1qj+twvJwjdK76fRXozVLIUJtD4Btt7/wumU2txTEgzAjyp5pnwquAobzzqMnl0VkOp//ZIJA9CP09bXan0CbL3/W0/ANQLIOnd8yzViYNUyBFyrAmZdwDiF6n/dzMAAdGlU/Lr1CbD1/lecmrtCu2PCEYAYqJ6x65t4I5uAY1XAzFsYp1D9r5szGIAujYpftz4Btt7/ilNzV2hZF499mdMAu1iP8UZWVcC4WyRjySpiNJXqf13mGIAujYpftz4Btt7/ilNzV2jxq/GHSUcB/t2ub+ONbAJZE2pWVUCq//XPCAxAf1ZbXbP1CbD1/m81+Tb48n9IMgBfksQTHDcQZMAmmYfUS1cFpPrfekJjANbjtbW1W58AW+//1hJvwy9+YpIBiAHrJRvGxGabE8i6qK50VUCq/62nMQZgPV5bW7v1CbD1/m8t8Tb84rhiP2Nwmbd5woZxsdlmBLLu7Dhts3CWbpV12+KUqv914c33p5J/Y6xmKUyg9Qmw9f4XTqf05g6TdHaiCThP0rHpveAL5gSyLuyMiec68y8p8Jfqf+tBLDnxz9vCAKynQa+1W58AW+9/rySpbKWXJhqAGGzOn5mMh1bW5ymHU3tVQKr/rZ9980m75F8MwPo6rNyi9Qmw9f6vTJAKV/i1ZAMwH7ReJulSFfZ/aiFlHV4vVRWQ6n/rZ9x8Hyr5FwOwvg4rt2h9Amy9/ysTpMIVDpH0uZFMwDclPVzSRSrkMJWQaq8KmHWh4tSq/3XzseTEP28LA9AlXOh16xNg6/0vlEajN5P1q2w+2Bz89yuSniXpVpiB4lrXXBUw81bFqVX/6ybGwftPif9jALqEC71ufQJsvf+F0mj0Zi4q6WsjHQU4ePA6d/Zksk9Jeqek10s6aY1/L5+dVohffk+VFFfAR3njn5cURzVaXmqtCphVrGiK1f+6+XvwPlPi/xiALuFCr1ufAFvvf6E02koz8ejXEgNLDW1EhcMochR1DuIahwtvhej2vjRroh1aFZDqf5vlRMY+hQHYTIs9t2p9Amy9/3smR+UfXkzSGRMyAd1BM251jMJEYQZaODqQeah906qAVP/bfADo5nKp1xiAzfVYumXrE2Dr/V+aGCYf/OZEDUB30IwLHuOahzjtMeUl62K7TasCUv1v82zr5m+p1xiAzfVYumXrE2Dr/V+aGEYfvK0BExCDaFzzEKc94sjHFJfaqgJm3Z441ep/3ZwsNel328EAdAkXet36BNh6/wul0VabiYvoMqsDdgehGl7HaY848jG1pbaqgFkFih47NeEW9CdjP8EALAA99K3WJ8DW+z80f2rZ/p6SLmjkSMB8cI0jH2F+prRkTbpx5GSdJdOMXG+dQEzXnedoyb8YgIRkaH0CbL3/CSm1tSbj9rqSA45DW3E72ZQGxqzD7utWBcyqM/H5re0d435xxr4zpTwfV409vq31CbD1/u+RGnYfxYOCsi4kyxjQSrUZRz7C/ET/3ZdaqgJm5dGUq/91c69UbnfbwQB0CRd63foE2Hr/C6VRNc0cOSuu8/4GjwTEQPkuSZeoRonNAsmsCnjfniFl3pI45ep/XbzdibvUawxAl3Ch161PgK33v1AaVdXM5SSd2qgJ+KCk6L/zsu2qgFlFiaZe/a+bc6Um/W47GIAu4UKvW58AW+9/oTSqrpmYBGMy7A4grbwO8+NsArIm4L5VAan+N3x3ztjXMADDddnVQusTYOv935UQE3oj7pd/e6Mm4EOS4lC245J5CH5VVUCq/5XJGAxAGY7prbQ+Abbe//QE2/IXxIVxUQmutVsEYwCOC9lcLwzMugjv2Svykep/KwD1/BgD0BPUtldrfQJsvf/bzr+xvv84SWc1eDRg1YQ3Fv91v2dbVQGzbkNsofpfV2MMQJdGxa9bnwBb73/FqVk8tCiac3JjJiCOfNyjOMn8BjML8Vxnj/CzChG1UP2vixUD0KVR8evWJ8DW+19xaqaFFlUDT2/ICESZZMeKgVmT8bKqgJmmo4Xqf90dFgPQpVHx69YnwNb7X3FqpoYW9QIeJemrjRiBOPLhtmQdjn/PEhBU/1sCZoO3MQAbQNvGJq1PgK33fxs5V9N3xiN2f1/SZxswAnHkw2kZuypg1oWHrVT/6+YWBqBLo+LXrU+Arfe/4tQcPbSYcF484YsF47RHHPlwWcasCph562Er1f+6eYUB6NKo+HXrE2Dr/a84NbcW2oUlhRn4w53yuj+Y0NGBOO3htIxVFTCr+FBL1f+6eYUB6NKo+HXrE2Dr/a84NasK7aqS7rBzuuDJs5r7cXvdyySdtOa/d0r6hKQfb8lUxDUPcdrDZcmamA+uCkj1v7IZgQEoyzOttdYnwNb7n5ZYNLwngSjQc0tJz5D05ZHNQFzz4LJkHpqfVwWk+l/5bMAAlGea0mLrE2Dr/U9JKhpdi0CYgd+VdMZIRiAueDxkrQi3u3LWxXnzIklU/yuvLwagPNOUFlufAFvvf0pS0ehGBOLZBS8ZyQTENQ4uS3ZVwKzbDVur/tfNJwxAl0bFr1ufAFvvf8Wp2Wxox88uQDwv2QjE3Q4uS2aBnqgKmFVwqLXqf918wgB0aVT8uvUJsPX+V5yaTYd2bLIJiOcixN0OLkvWJP2CRKPVWvW/bi5hALo0Kn7d+gTYev8rTs3mQ3tQ4uQUA3Sc+3ZZsg7Tn5/E+DQXsElxYgCSwJZutvUJsPX+l84n2itL4KVJE1QM0FHnwGXJqgqYMVFFmy1W/+vmUgbXGKtZChNofQJsvf+F04nmChO4hKRvJJmAdxWONbO5zKqAGZNVi9X/uvpnMMUAdAkXet36BNh6/wulEc0kEnh4kgH4vtntgFlVAUtPVq1W/+vuAqWZRnsYgC7hQq9bnwBb73+hNKKZRAKHS/pKkgmICocuS1ZVwNKT1etcgCbGWZopBiBJrNYnwNb7n5RWNFuYwDOTDECUN3ZZMqsClpyw7u8CNDHOkjznbcVYzVKYQOsTYOv9L5xONJdE4FZJBuDBSfFmNZtVFXA+yQz9+xNJl8vqvFG7Qzku2h4DkJAArU+Arfc/IaVoMoHARZIeIBQPNnJasqoCLppwNnmv5ep/3TzahN2qbTAAXcKFXrc+Abbe/0JpRDMjEDg14SjAc0aIu+RXZFYFXDUB9fm85ep/XZ37sFp3HQxAl3Ch161PgK33v1Aa0cwIBP57ggH4sxHiLv0VWVUB152QFq3fcvW/rs6L2Ax9DwPQJVzodesTYOv9L5RGNDMCgTcmGIDXjhB36a/Iqgo4dIL6fOmOGrc3lOWi7TEACQnR+gTYev8TUoomkwi8PcEAxL31bkutVQFbr/7XzaNFE/jQ9zAAXcKFXrc+Abbe/0JpRDMjEPhgggGIh+G4LbVWBWy9+l83j4ZO9ou2xwB0CRd63foE2Hr/C6URzYxA4NsJBiAOpzsutVUFpPrfgVm0aAIf+h4G4EDGRf7X+gTYev+LJBGNpBO4bsLkHwPyY9Ijz/mC2qoCUv3vQJ2HTvaLtscAHMi4yP9anwBb73+RJKKRdAIPSzIA90yPPOcLaqsKSPW/A3VeNIEPfQ8DcCDjIv9rfQK8R9LAGk9xY4FAKQIZ5/9jQHa+ba2WqoBU/9ud5UMn+0XbYwB2cx78TusGIC7cWZRsQ9+79mBlaAAC+wjcPClHz5cUDxpyXWqpCkj1v90ZNHT8XLQ9BmA358HvtG4Ajk4aXO81WBkagMA+Av8jKUc/Zg64lqqAVP/bnUiLJvCh72EAdnMe/E7rBuBqSYPrqwYrQwMQkOLc8tCBc9n2z5sA4BqqAjqfRslKgWU5N+R9DECCWq0bgEMl/ShhkP2epKMS9KLJdgj8iqQfJOTmfBA+bgIot10VkOp/i5NonmMl/2IAFrMe9G7rBiDgfSJpkHUssjIomdi4GIHLSzo9KS9jUI7z/5cqFu32Gtp2VUCq/y3WvuTEP28LA7CY9aB3MQDS3yQNtHF18LGD1GHjFglcU1LGk//mA2n8PXkiYLddFZDqf4sTqZtrpV5jABazHvQuBkA6IckAROJH9bYbDVKIjVsicCdJZyfm43ww/tcTgrqtqoBU/1ueRPM8K/kXA7Cc98afYACk6yQPuHEel+TdOEWb2PAKkuLRvD9NzsUYkL8j6YgJUd1WVUCq/y1PopIT/7wtxtDlvDf+BAOwD90ZIwy875B0042VYsMpEoh8eJGkc0bIv/lAOrVrU7ZVFZDqf8v3yHmulfyLAVjOe+NPMAD70J044gD8hZ1B/5GS7rdzdCB0qP1fVE2MojRxgVqNy8Uk/ZKku1TM8vgZuCfNKvDFr8evjZhz84H4XElXrVG8gTGNXRWQ6n97CzbPt5J/MQB7M9/oUwzAPmxxL2/JZJ1yWxdI+l87D5KJSXfbSxiTt4z8K9pV35dvW6yk7x+7KiDV//YWMmP/wADszXyjTzEA+7F9ABOwtgn66havb7iWpH9Es96aRb2LKHw1xWXsqoBU/9s7izAAe/Op5lMMwH4p7s5k0nsy6e7gcUTgKfsxjvLqtpLOQq+19HryKMps70vGrApI9b+9de6OD6VecwRgb+YbfYoB2I/tEElRH71UwrbWzljPlr++pLgFqzW+Q/p7mqSL7k/1Sb4aqyog1f9Wp8+QXF22LQZgNfe118AAHIiMowCbT6xxYdStDsRZ/H9x+1pcRLlskOD93WziCE0LBanGqgpI9b/Vu3XGfogBWM197TUwALuRxQVlGQncQpsfkhRHUrKWx6PN2rn5zCwxKmt3rKqAVP9bLXzGWIcBWM197TUwALuRxYVSP2SiWXuime/0cX4+Y4kHN52JLmvpEhe2HpYhRqVtZlcFpPpfP+HnY0HJvxiAfuzXWgsDsBhX3K9dMnlbaivrMbO3RpO1cjLu0Iir41tasqsCUv2vXzZljHcYgH7s11oLA7Ac12uYcNaacOY7/T8tRzrokz9Cj956RLnfeJxwa0t2VUCq//XLqPlYUPIvBqAf+7XWwgAsx3UJSf+bSaf3pDPf2b+xHOmgT16MFr20iGp/dxhE2nvjrKqAVP/rnxfzsaDkXwxAf/6918QA7I3qSpLitp+SiTz1tn68N9KNP301OqzMw+9LuuPGhKexYVZVQKr/9c+PjDEOA9Cff+81MQCrUcXz2b/C5LNy8pnv9KevRrrRGv8VDfbUIAojxa1wrS9ZVQGp/tc/s+ZjQcm/GID+/HuviQHoh+oXJP0zE9CeE9B8Z/+HfkjXXivrl908bue/n5IUpZFZ9hHIqApI9b/+2ZWxL2EA+vPvvSYGoDcqHTUrqHIKJmClCciqCBgmLGNgcW/zVZJqeChT/z0pf80oe1xS18/khzypbyjJft4WBiAhRTAA60G9iKSoBBbV1eaJyd/9LM6XdPX1kK619ofh/v/z7tuSfncteu2sHLU8flowV7JM7VQVyRgTMQAJ2YIB2AxqPII27rPOSHTnNl+2Gc7eW0VJW2c+pWI/SdIVelNrc8VSF43GXS2XbhPhxr0ulefddjAAG8uxfEMMwHI2qz655GxgiKI38au3m6itvo4LJceYlKIYS6uM3y8pCiKxrCYQd/DE5D00V+6z+qtY4yACQ5kv2h4DcBDkEv/FAAynGE+n+2tJcZ/wosRt4b1zJB09HGWvFuJ890caYx0XVlKDvld6HLDSMZJ+NCBXTjygNf7Tl0DGmIcB6Et/jfUwAGvAWrFq3C74QknfGjDgZOw42W3GL/+xJv+5BHFINqvgSzavvu3HKaZnN1rRb65zib+3lPTNNffJuMbniSW+vNE2+ub4OuthABKSCQNQHmpcKBjXCMQ5yCnXD4hTH3HOf4zD/otUiocDPWRCDwiKi9aijHLUO7iTpOgfSxkCkaOxP/a5MDCqf8aRA5bNCawzsfddFwOwuR5Lt8QALEVT7IPrSnqgpHgs65slnTr7/5cknb3mr5K+O0rWelFi9ozZOeg4HB1FUTKv9l8HfpRsjhrtr99hG9XwshgMbTc0D+0jB94t6aWSHinpLrOjR5ddp9OsuxGBuDvgjyW9Z+ci3vNmJjIKKH1U0os4zbIR00UbDd1PFm2PAVhEeuB7GICBANkcAhCAAAQOILBoAh/6HgbgAMRl/oMBKMORViAAAQhAYB+BoZP9ou0xAAnZhQFIgEqTEIAABBomsGgCH/oeBiAhoTAACVBpEgIQgEDDBIZO9ou2xwAkJBQGIAEqTUIAAhBomMCiCXzoexiAhITCACRApUkIQAACDRMYOtkv2h4DkJBQGIAEqDQJAQhAoGECiybwoe9hABISCgOQAJUmIQABCDRMYOhkv2h7DEBCQmEAEqDSJAQgAIGGCSyawIe+hwFISCgMQAJUmoQABCDQMIGhk/2i7TEACQl1r6SyqYckxEqTEIAABCBQN4EY+xdN4EPfi7mKpTCBuyWJdWThOGkOAhCAAATqJxCP6x462S/aPp6XwVKYwK2TxLp84ThpDgIQgAAE6idwxaQ5hSc0Jmh/oySxrpkQK01CAAIQgEDdBK6VNKfcsO5ue0aXJdave+IgaghAAAIQGEDgdkkGoJbHjw9AU9+mWYdrjq+vq0QEAQhAAALJBE5IMgBHJcfdZPOHSTovQbDnNEmTTkMAAhBom8DzEuaTcyVduG2seb3/TIJg78kLl5YhAAEIQKBSAu9LmE9OrbSvkwjrLQmC/VjSEZOgQycgAAEIQKAPgbj9O8b+RbfxDXnvTX2+nHU2I/DMBMFC7NtvFg5bQQACEICAIYFjk+aSEw1Z2IT8oCTRuA7AJgUIFAIQgMBgAi9ImkseMDgyGlhK4GZJon2dCzeWMucDCEAAAlMiEBeUn5k0lxw9JVC19SWurvxuknB3ra2zxAMBCEAAAsUJ3D1pDvmOpEOLR0uDBxA4OUm8aJcFAhCAAASmTeDtSXNIXKTOkkzg0UnixcWAN0mOneYhAAEIQGB7BKKk/AVJc8jDt9etdr4565kAYQBOagcjPYUABCDQHIG4TW/IbX57bfvLzdHcQocvJOkbSSKGM7zlFvrEV0IAAhCAQC6BeO5L1q//r0o6JDd8Wp8TeH6SAQh39wlJcZUoCwQgAAEITINAXED+scR549nTwOTRizhXv9ehmKGfxXUGLBCAAAQgMA0Cj0+eM3gE8Mh5Er/Uh070y7aPhw7dYuT+8HUQgAAEIFCewE0lxUN6lo33Q9//ZPmQaXEVgWxHd4aky6wKgs8hAAEIQKBaAj8j6YuJk3+YB44Yb0H+Kye7uhD2XZIO30Lf+EoIQAACEBhGIMbudydP/vFAoSsNC5OtNyXw8mRxwwTEbSNUd9pUIbaDAAQgMD6BuFssbuseenh/1fYvGb9rfOOcwDUknT+CyH+OCZgj5y8EIACBqgnEFf9/OcK8ENeKXa1qEg0E9+oRhA4X+GZJRzTAky5CAAIQcCUQh/3/dqQ5IUwGy5YJXF/ST0cS/B8lxbUHLBCAAAQgUBeBq0g6ZaS54CeSrlNX99uNJg7RrzpXU+rzeIzkse2ipucQgAAEqiMQT3P95ojzQFx/xlIJgaMknTWi+HHE4YWSLl1J/wkDAhCAQIsE4ja/FyeW+F30wzGMxmVbhF1zn39vRAMwT4qvS/odSXHFKQsEIAABCIxDIMbcByQ+F2Y+xi/6+6Bxusi3rEMgEmKs8z8HJ8Vpko6XFFefskAAAhCAQA6BGOfvLenTW/jBF+P+h/jBlyNsiVbjUcGZJR8PnvgP/v/psydCPVnStUp0hjYgAAEIQOD/Ebj27Fbsp8x+9UeF1oPH3bH+H0V/eORv5Qn50C0mSDcRwyk+VdLtuH2w8owhPAhAoDYCccv17WdPZn2apA9XMqY/uDZIxLObQDyT+Y2VJMzcEETBiM/sVBV8uqTH7ZwyuN/O4aw4pMU/GJAD5EBrORBjYFy/FWPiM3bGyBgrY8ycj581/H397qmGd2olEFfnf6GyBKohiYmhrkEFPdCDHKg/B+Iar0vVOtkR12ICR0s6BxNQlYtmsKt/sEMjNCIH9ufADyXdePEUw7u1E/iNkZ4VwA6zf4eBBSzIAXJgCjkQ1f7uWfskR3x7E7j/yEUippD49IEBnBwgB1rOgQskPXDvqYVPXQg8gVMBnAogB8gBcoAc6JkDj3GZ3IizH4H/0lP4ll0vfedXHzlADrSeA3H7NssECTxkxCcHtr4T0X8mEnKAHHDKgTjs/+gJznt0qUPgvhXeY+q0kxArgzo5QA5MLQeigux9OvMELydM4M6Svs8pAc4HkgPkADnQfA58V9IdJzzf0bUFBKK29EfZ+Zvf+af2S4b+8OucHOifA5+UdP0F8wNvNUDgopKejwnABJAD5AA50FwOvErSkQ3Mc3RxBYE49xOHgXDOMCAHyAFyYNo58B1J/2rFnMDHjRG4kqRwhOz8MCAHyAFyYJo58FZJV21sbqO7axC4zezJfJ/CCGCEyAFygByYTA58VtKxa8wDrNowgcMlRfXAsxgAJjMA8Itumr/o0BVd98qBb+08avgiDc9ndH1DAheX9DBJX8EIYATIAXKAHLDJgTNnY/6TeIzvhjMfmx1A4IjZ0YCoIvhFBgCbAWCvXwV8xq9GcmCaOfAFSX8gKcZsFggUJXAhScfs3DrI6YFpDiBMDOhKDnjlQNzBFRdw30HSIUVHfBqDwBIC4TCjrPAbuFaAowIcGSIHyIFRcyDO7f+tpH/Dr/0lMxRvj0YgjgzceOdBEm+TFPeZ8isCBuQAOUAOlMmBGFNjbH2UpBtJijGXBQLVEriypNtK+o+zC1GeK+nkWb3p90v6mKTP7xw1iAdQMEDAgBwgB1rNgRgD43RqjIkxNsYYGWPlcyT93s4YGjVaWBII/F83DVKV7xiRJgAAAABJRU5ErkJggg==;" parent="1" vertex="1">
          <mxGeometry x="-97" y="1463.5" width="65" height="65" as="geometry" />
        </mxCell>
        <mxCell id="O3D1N8Hfds_VMY7Xwt8E-116" value="작가 별 작품&lt;div&gt;이미지 파일&lt;/div&gt;" style="rounded=1;whiteSpace=wrap;html=1;fontSize=20;fontStyle=1;align=left;strokeColor=none;" parent="1" vertex="1">
          <mxGeometry x="-30" y="1387" width="125" height="70" as="geometry" />
        </mxCell>
        <mxCell id="O3D1N8Hfds_VMY7Xwt8E-119" value="" style="edgeStyle=orthogonalEdgeStyle;rounded=0;orthogonalLoop=1;jettySize=auto;html=1;exitX=0.25;exitY=1;exitDx=0;exitDy=0;" parent="1" source="O3D1N8Hfds_VMY7Xwt8E-117" target="O3D1N8Hfds_VMY7Xwt8E-118" edge="1">
          <mxGeometry relative="1" as="geometry" />
        </mxCell>
        <mxCell id="O3D1N8Hfds_VMY7Xwt8E-117" value="작가 별 정보&lt;div&gt;CSV 파일&lt;/div&gt;" style="rounded=1;whiteSpace=wrap;html=1;fontSize=20;fontStyle=1;align=left;strokeColor=none;" parent="1" vertex="1">
          <mxGeometry x="-32" y="1461" width="125" height="70" as="geometry" />
        </mxCell>
        <mxCell id="O3D1N8Hfds_VMY7Xwt8E-121" value="" style="edgeStyle=orthogonalEdgeStyle;rounded=0;orthogonalLoop=1;jettySize=auto;html=1;" parent="1" source="O3D1N8Hfds_VMY7Xwt8E-118" target="O3D1N8Hfds_VMY7Xwt8E-120" edge="1">
          <mxGeometry relative="1" as="geometry" />
        </mxCell>
        <mxCell id="O3D1N8Hfds_VMY7Xwt8E-118" value="AI 모델 학습" style="rounded=0;whiteSpace=wrap;html=1;fontSize=20;fontStyle=1" parent="1" vertex="1">
          <mxGeometry x="-93.5" y="1603" width="185" height="76" as="geometry" />
        </mxCell>
        <mxCell id="O3D1N8Hfds_VMY7Xwt8E-137" value="" style="edgeStyle=orthogonalEdgeStyle;rounded=0;orthogonalLoop=1;jettySize=auto;html=1;" parent="1" source="O3D1N8Hfds_VMY7Xwt8E-120" target="O3D1N8Hfds_VMY7Xwt8E-136" edge="1">
          <mxGeometry relative="1" as="geometry" />
        </mxCell>
        <mxCell id="O3D1N8Hfds_VMY7Xwt8E-120" value="" style="shape=image;verticalLabelPosition=bottom;labelBackgroundColor=default;verticalAlign=top;aspect=fixed;imageAspect=0;image=data:image/png,iVBORw0KGgoAAAANSUhEUgAAAgAAAAIACAYAAAD0eNT6AAAAAXNSR0IArs4c6QAAIABJREFUeAHtvQnUfVV93/0VFZEQQijVUkoosVJCCJGwXBJj5SVGFy8sF4ZqLL4aI69Wi4XI0mq1WqQaJciLBn0FGvV1oAo4QVTiPKHiDEZRkEkEZJBBQEEm+z7fP8+R+9z/uXu49wz7nPPZa9117z3D3r/92dP37LMHCQcBCEAAAhCAAAQgAAEIQAACkyWwlaTHSjpE0nMkPVPSAZL2miwRIg4BCEAAAhAYIYH9JZ0q6UeS7pT0vwOfX0n6uaTzJb1e0i4j5EGUIAABCEAAAqMlsJOkM9Yb81CDn3LuyjVKr5a0xWhpETEIQAACIyKwtaTPSLpn/WnPT3VHjSh+RKWewK6SzpHkJ/mUxj3nmjskvRkhUA+eoxCAAARKIXD1ggbguFIMxI5GCfjp/BRJ9y5I95yGPnbtLyQ9u1Hr8QwCEIAABBoh8JpAI+AGwr0DuPEQ2F3STwNpHmvQlz3/cXoDxpOJiAkEIDAOAt+KNAaHjiOaxGJ9FH/1mmfZhnyV+66X5PEGOAhAAAIQKIDA9yMC4IUF2IgJqxN4cUvv+nMFgccG7LN6dPABAhCAAARWJYAAWJVg+fe/IiLyQo24BwjeJsmj+y+SdKmkn0hyQx66L3TO0wv9KgIHAQhAAAI9EkAA9Ai/g6C9eE/uKH837h+RdHDkvf1267NFvA5A7oBCzzR5eAfxJwgIQAACEFhAAAGwAMwIDu8xM7Uz9ERenfvZ2tO+XxUs4ywGTs8UAl5sCAcBCEAAAj0RQAD0BL7lYB8k6YbEbnr3EJwUedpPNdeD/L6bGK6Fx3tSPeY6CEAAAhBolgACoFmepfj2rsRG+HZJj2vB6GMTw7f4eHQL4eMlBCAAAQhECCAAIoAGePqRie/93eW/c4vxOyzRDg8wxEEAAhCAQMcEEAAdA+8guHMTnr795N/FnPwXJNjiVwHP6oALQUAAAhDYQMADpQ5f2/ns5ZJOWP+8StIRkh6z4cpx/kEAjCtd/UQfG/Xv8210+y8i+c4EEeDlqHEQgAAEWiPggVHPl/RZSTcnVJTV6GjPg/ZT1ctGuDQuAqC17NaLx2clNLYn9mDZov0mqjLm78f3YBdBQgACIyewr6QvSbo7oXKcrZDqfnu+s+c9P2UkzBAAI0nI9WjEFui5qafoujetrjzNHvOOlDgIQAACjRDYb331stlKpsnfXhFt6GvlIwAayWpFeOKFe2L526+7+nLnRez7ZV+GES4EIDAeAttIOjtS2cQqypzzXh51t4HiQwAMNOFqzP5QJM979b0+nbv4Y+WKfQL6TCHChsDACbhr3k8SsYqm6fN+NXDUANkhAAaYaAtMviaS79+/4L4uD3vqYajseUEiHAQgAIFsAidHKpdQxdPUuU9lW93vDQiAfvk3GXpsjMv+TQa2pF+fiJTRbyzpL7dBAAITJhDr/myqgU/x52JJWw0kLRAAA0moiJk7RBpW91CV4GLrAlxbgpHYAAEIDIfA5yKVX6jR9pxod0v6Pf4F6+uYX7K2DsCNmRupzIdxuSRPOyzdIQBKT6E0+w6KlIG+Rv/PW79rxE4GAs4T4z8EILCQwGmRCmW+YfZ/T5X6B0lPXujr/Sc8cOnUdZFQ51fomEc9l+4QAKWnUJp9XnY3lBctaktxoYWK7inFSOyAAATKJvDSSKU3XyH6KehFK0TpaZK8bvm8v6H/pe92hgBYIUMUdOtLIvnyOwXZ6kZ+UZmxOMBBAAIQCBLYK2Pvcb//fGPQt7yTHu1/V6ASm6/cnprnfadXIwA6xd1aYBa28/lu9v/3Wgs532OXx1nbZn8jAPJ5cgcEJkcgNuWpqlRukbR3C3S8kUpqb4BfOZQ6KBAB0ELm6MFLb6ZT5fm6b49JKcFtEbHTMxlwEIAABBYSOCZSiVQVoEXCdgt9Wf2EB/l5WeAqvND3h1cPrhUfEACtYO3cU0/xC+U/72dRgvNCPyE7LZZxEIAABGoJbLm2c9+dkUrEFcwNkrwiYBcu1ojaHndtegR0aS5m+wtLMxh7agm4hynUsDr/uez07V4ZsZNdAftOIcKHQMEEvJNZqKLzOQuEHTuMgytWDzCM2eVdCEtzCIDSUmR5e2IrYPo1Qd/uq5Fy4vM4CEAAArUEbo9UIG6EPVq/a+dBiX7KCokAn9++a8Mi4SEAIoAGdNpT/UL575wC4hLrvXtDATZiAgQgUCAB77wXquB8rs8nCE/5i9nX5GyEJpIIAdAExTL8OCWS/zzArs/BqM+L2OeyM9RNtcrIAVgBgRET+FakAvET9s49xt+DAmNPOKUtdYoA6DHDNBz0oyLlww3sWxsOM8c7b58dEsh971aYExeuhQAEOiYQa1zP7dieuuDeEankXAG2OTOhzqbQMQRAiM7wznnwa6iR9foVfeS/50fsss3ezwMHAQhAYDMCnssfqth87oDN7ur+wMMSxgKUtG0wAqD7PNJmiG9OKCddjwXYdn357Vj53bNNMPgNAQgMl4DfnYcqEA8OLMXFFgj6TCmGSkIAFJQYDZiytaTYtsAuR12K0H+KlF3bc2EDcccLCEBgpARiO/59s6B4e/OgkFgpZVU2I0MAFJRxGjLlvZH8V+XNv2kovJA3ZyTa8oSQJ5yDAASmTcCNZlVx1X2/pSA8z47Y+ouCbEUAFJQYDZniXgCvqFdXTuaP/XVDYdZ5c3qiDd+uu5ljEIAABCoCsYV2SljkpLLVMxHmK9rZ/yVteYoAqFJtXN9ewXE2z4V+v77hqHsFztQlsl0WvK8GDgIQgMBCAp4iFKrEHrfwzn5OhGz1dMVSHAKglJRo3g73NIXy4ey5iyQ9sgETDpOUslhXFfbLGggTLyAAgZETiHVpljaCOLYqYCnJhQAoJSWateMrGY1/1Rg7z35B0h5LmPLMjN0xq/C6no2wRLS4BQIQKIFArAfgsSUYOWNDVcnVfdMDMAOKn40T+NISjf98Pr1uTQh4AN/TJXka37xzb4FnEnwxY7zBbBhXSPLCWTgIQAACUQKxMQBeJrgU57UAZiu7+d/3lmIoswAKSolmTPGGU/P5rYn/zrNeRMhTDGO9W7HwvFhRnahohgC+QAACoyPw40jFVtIa+35qClWCJa1ZwCuA8RSVsyL5LpQnuzrn7X77WIlwPKlMTCAwQQJ+XxiqpPzOsxT3toitXiioFIcAKCUlVrPjw5E8Fyo7XZ3z6wK6/VdLZ+6GwCQJeBOTUEV1W0FULo3Y6oqwFIcAKCUllrfj/ZH8Nltu3JP2iYzrZ+9d9ren+jHaf/n05U4ITJ7AfgmV1mMKoOQ50LF3pK8owM7KBARARWKY3+9MKBdVw33VzHbAT5IU2zioum+Vb+/gyTz/YeYtrIZAUQRia5x/qgBrY3sWuDL1IMFSHAKglJTIt+PtGY2/3717hcB5d7gkb1G9SiNfd697wSwycBCAAAQaIXBBpKLySOUdGglpOU+2kBRbfOXG5bxu7S4EQGtoW/X4lEhZmG2Uf5ow6v4QSV+X5O762Xtzfnuqrrf0LW1NjlYTAs8hAIFuCLwgoXLqsxcg5enfFXdJDgFQUmqk2XJ8QjmoGm538+eOuve22t5QyILb02/np/5ZaN+53nNg0XCCpN3TTOcqCEAAAssR8BO2K56qclv0vf9y3q90l9f/jz09eWzAw1cKpfmbEQDNM23Tx+MS8n9VLtzbtH2bxuA3BCAAgS4JvCehAnRXZNcLjXiAVVXxLvo+t0tQiWEhABJBFXCZN+1ZlLfmj99SoNgsACEmQAACQybghj32pO3K0NsHu8egC/f5xIp5mTXW27YfAdA24Wb898yR+UZ+0f9bJe3YTLD4AgEIQKAsAiclVoZ+h7lly6Z/NNGWz7Rsx7LeIwCWJdfdfZ5Dv6ixnz/u9TCYdtdd2hASBCDQMQE/2d+cWCl6+lMbFaLn+38n0Qavod71K4nUJEEApJLq57oXJuYxCwEvMb1rP2YSKgQgAIHuCDwhYcGd6unIDbAr0qbckyX5SavyP/b9/KYCbsEfBEALUBvy0rNeYotKVXnPjb936MNBAAIQmASBlGl3VQXp78skeYrTsm5vSedlNPwO068ISnYIgDJT53kZjf8da9P2diszGlgFAQhAoD0CsU2CZgVA9dt7nZ+Y2F3qVfuOkfSjzIbfYV3S4UDEZQkjAJYl1959z8ho/D0tdq/2TMFnCEAAAuUS8HiAWCNWNfx13+46vWL9yf7i9UbbT/luvD2dsO6elGPXL1h6tTSSMXZNvjopLe4l2uOtpFO7/f1qy71SOAhAAAKTJWAR8I0VGuuUBj3nmp8MaAEWBEA5xeapGY2/V+d7bDmmYwkEIACBfgmcXYAI+PbA9jxHAPSbZ6vQD5TkJXZThKYb/8dVN/INAQhAAAL3ETgycaGglIo25xp3275pgImAAOg/0bxrXmrj70WwvDU2DgIQgAAEagh4OtSFiU9TOY38omuvlPToGjuGcAgB0G8qPTFDsFokuKcABwEIQAACEQKHrc3/91aoixruVY97yVWv0jZkhwDoL/X8Dt/d+Sn50I2/15/AQQACEIBABoFnr4/qTx1dHauQ/cT/kozwS74UAdBP6uyb2fgf3I+ZhAoBCEBgHAQ8p9+LB7nR8xSqWENfnfd7V08LPCVx7YAh0UIAdJ9afl2Umv8sWr0uAA4CEIAABBok4B3TYl2wY19bHQHQYIZK8GpPSV68pxKXoW83/s9K8JNLIAABCEBgCQK/jFTGS3g5qFsQAN0ll7eDjuW3ShC48X9Od6YREgQgAIHpEYhVyGMnggDoJoV3Xxsw6jX7qwY+9n1EN2YRCgQgAIHpEkAAhBsllgJevWzsIukXGY3/i1YPEh8gAAEIQCBGAAGAAIjlkVXO75y5p8SLVwmMeyEAAQhAIJ0AAgABkJ5b8q7cKbPxPzrPe66GAAQgAIFVCCAAEACr5J9F93rK6c8yuv1fs8gjjkMAAhCAQDsEEAAIgKZz1g6Sbs5o/F/XtAH4BwEIQAACcQIIAARAPJekX7G9pJsyGv8T073mSghAAAIQaJIAAgAB0FR+2kbS9RmN/1uaChh/IAABCEAgnwACAAGQn2s2v8ON/7UZjf/Jm3vBEQhAAAIQ6JIAAgABsGp+21rSNRmN/6mrBsj9EIAABCCwOgEEAAJglVy05dqSvVdkNP6nrRIY90IAAhCAQHMEEAAIgGVzkxv/yzMa/zOWDYj7IAABCECgeQIIAATAMrnqQWs79V2a0fifvUwg3AMBCEAAAu0RQAAgAHJz1xaSYpsozW7288ncALgeAhCAAATaJ4AAQADk5DI3/t/LePL/TI7nXAsBCEAAAt0RQAAgAFJzmxv/72Q0/l9P9ZjrIAABCECgewIIAARAaq77akbj/81UT7kOAhCAAAT6IYAAQACk5LyvZDT+56V4yDUQgAAEINAvAQQAAiCWA8/JaPx/IMmvCnAQgAAEIFA4AQQAAiCURT+X0fhfJMnTA3EQgAAEIDAAAggABMCibHpWRuN/CY3/IowchwAEIFAmAQQAAqAuZ344o/H/sSSvCoiDAAQgAIEBEShBAOwj6cuS3JB4sNljO+QXW9DmhR3a8gZJP5Tkp+m39vgu/f0Zjf+VkrbqkBFBQQACEIBAQwT6FgBHSfrVXIPj/69oKH4xb0oQAH5vbvEzu3qef/9Uknfa69K9s8aOebuq/1f3YF+XLAgLAhCAwKgJ9CkAHi7pngUNzr2SdumAfAkCwDvkVY3q/HeXK+m9LWDHvF0WJ9t2kD4EAYFBEnDl9dr1rs2rJN0h6e71px0/4bjiu1PS9ZK8aMYpkh49yJhi9JAJ9CkAXD7mG5bZ/2/qAGwJAuC2AIe7OmDgIFz/zLIP/b5B0nYd2UUw0yLgh4KjJX1i/VXYzyT9Yq1H0OXAH/92/rtA0ockPa+kV1C7SnqvpFszCtN8QbMo+Oza5/HTSndi2xOBPgXAuyPlxAPR2nYlCAA/GMzXA7P/22bgsQez4YV+0/i3nRrT8/+Rkk6XdEtGPpzNo36g/sna66jj+uqV2lfS+UsaPxuR+d/Xrr0bPGx6+YEYd0igTwHwnkiZObMDDlMXAA+rGYMxXw9V/2+StEMHaUIQ0yDwREleO6LKX018+9WhH6D9MN66c+E5t+EI1EHwSFteD7SenJMMAAEQroC6mAXQZw/AEYn1l3s13T2Lg8CqBB6RuZ10XZsYO+ZeAT9AtDZD5cj1d/oxQ5o67wi5yxQHgSYJIACmLQA83TBWR7nx37HJTIdfkyVwgiQ/pcfyXFPnPfbukCZpe53rT3UYgXkQl6/NEXbPAw4CTRBAAIQro7H3AJwUqctul7RzExkNPyZNwDNGvhvJa/NtXZP/Pb11ZefVri7sMRIVkJ9L2n3l2OABBCQEAAKgqlfqvr9FIYHAigT86siDR+vyV5fHPE5v6b0q/C7BIw27NDgUlmcL7LliwnA7BBAA4TI99R4ABAB1xCoEPBjPU/dCbVmX5zzoMHu3St/g5TlzDfW7Dm+P+RZJT53runeXyBPW1wr4uuJPYnVhu3tup1VSh3snTwABEC7XCIDJFxEALElg+yWn9vm9/dfW20a3kbMLTvn199PWl8p2b/wy4wm87k6W82pcdQ3womM3r/n+6iU2yHimJL/jX+Rv3XEvJJStaLJiz8VjJoAACJc3BMCYcz9xa5OAZ6/VtVmLjl26thfGMzIN8mv5YyR5waBF/tYd9+qbSc5rldd5UHfMKxW9MsnX8EUHS7KIqAuj7tjZYe84C4GFBBAA4XKGAFiYdTgBgYUEzshov7y+xEELfUo/4Ydut8F1bWTdMT9wB11orfJ5D/2KoMnR+X6q/1hGZPyKAQeBXAIIgHCFgQDIzVFcP3UCB2a0W//QcA+2p6um9qJ7HN3s64XN0u0biRHxYkBtuZcmrtTlZRR5FdBWKozXXwQAAmD+YWb2P4MAx1v224rZjYnt5qvaMkCSe8Vn8/Gi359eZMN+iR5404K2nUXAogjMHu9i85S244r/3RJAAITLFj0A3eZHQhs2gWMT26qXdBDN1PV6HlVni3cbmm1c6357hH9XLmWrTo+epBegqxQZRzgIgHA5RwCMI58Ti24IpEz5O7kbUzaF8sOEdnyzWQFeZKeuwZ895orT0xy6dB4lOWtD3W9vpYiDQCoBBEC4TCEAUnMS102dQEpPtcfKdem8eVWsjnM7ususUd5nuK5xnT32otkbOvrtbRNj8x5/3JEtBDMOArHC0WYs2Q3wPrp9bgYUWwqYMQBtloBx+R0bfOf9bHbrIcoW8bNtd93vDfvseKnduouqY14RsC/30YhttpG1u/tKneGFiwAIl3V6AIaXp7G4ewIefV+1j4u+PeK/L3dtxD6vI7DJ7RG50JF7bnVxD98GbSW1CLKPv64HuwhymAQQAOGyhAAYZr7G6m4JeDGeUJvkNqvP7aRfELHPtm96DeCR9KGIuMLs23k945CN5/VtIOEPhgACIFyWEACDycoY2iMBvyoKtUkeVN+387z/kI2bHpw9IjB00Tl9x2JtHIDnT4ZsvK0AGzFhGAQQAOGyhAAYRj7Gyn4J3Bppk17er3mbQv9KxMZN6/lcF7noxQVExF0pIQHg7hYcBFIIIADCZQkBkJKLuGbqBGKvpZtcJXdZ1i+LtJubxvbFugk8Er8EF7PTUxlxEIgRQAAgAEIPE8wCiJUgzsemzbuOKcEl2RmaZlfSk3Wsp+KAEohjQ/EEEAAIAARA8cW0aAPd1oTykEfgl+JCPRVu+4MR8XzdUlxszmV0p6NSIoIdvRJAAITLPK8Aes2eBD4AAs+KtJtewK4UF11zI6RkvNVgKS62xGGfUxVLYYQdcQIIAARAqM7jFUC8DE39iudFBIBnrZXiYtsFB+fYb+oiKCQmV0agP6UQOzGjbAIIAAQAAqDsMlq6dYdE2qKSVqeNvuKPdRFsU0hqxKZdPK4QOzGjbAIIAAQAAqDsMlq6dW5rQnnIW9WX4LaN2LnpFb+XBAxF5skFxMQ7/oUGM9j+rQuwExPKJ4AACJd3xgCUn4exsF8CfigOtZmlDJ53r3jIzk3LAV8Yuehd/bLeFPrBERtLGqtQAC5MCBBAAIQrBQRAIPNwCgLrBGLv1kuYlfbeSLv5A8fljMhFfvfetzsrYuPVfRtI+IMhgABAAISeihgEOJii3KuhsTFp3mG3b+eFfkJ53W2/Yk/X9mDD3sE9xOoXkYi8vwebCHKYBBAA4UqBHoBh5mus7pbA6ZE2yTvs9ukeEbHP7brbfvn9emikoC/8WI8xOTw1Ij3aSNDDIYAAQACEnoroARhOWe7T0gMT2iVPF+zLfSJin9t8t/2b3LcTLt6purjj7xsjtt3RsT0EN2wCCAAEAAJg2GW4FOtvj7RNN/Rk6M4JD/Xnz9r2jEhEXGAsErp2JyTYdXbXRhHeoAkgABAACIBBF+FijI+NTXM+O64Ha924h/K4z222cq7nLsZu8u5CXbm9ElSM7d2jK4MIZxQEEADhcs4YgFFkcyLRAQG/Z49NT3dX+94d2FIFcVRCO35bdfHs96sSbnRk9p+9qaXf3koxtvufG/8+eiVaijLedkQAAYAACD3oMAago4I4kmC+ntBuus7ZoYP4PjHxofnVdbZ4QEBsUSAXHM9/3LfOg4aO7ZgYCSsv9xLgyiXwG5J+V9IfSNqnkE9s/m6bdvp1Vajx+XwHjC6L2PC3HdhwT8SGNtPgA5GwPTe6zfBT/XaZcdlxGcKVS8A90LFeAJd5X/NvWoyGVyeM1W22wz39vx78N29PbI3jqvJyAT50/uYG/u8pKbY0cWVDCfMsG4jyaLx4oKT9JB0j6bOSrolUtFU68h0WBfCBj8vSZ9ZqCj+5PV6SyxquHALvS6zr3G628crauxPGRHVVj7iND7ovJkbGHn5Q0pZB39JP+hVEbDpiFQnPsdwq3WuubJHArmtPKW+QFFt0oko7vmnQyAOr5QEvfObBZf+6xXKN1+kEHpTYe+5874b6FeleB69025syELEqb+cEfVs/aU9vzhABXqTnlSkeL7jGisQZujIy5dvvVHZb4B+HuyHgxaHendFjk5KuXJNXDuA1bV7u8n2nJE/7wvVHwG3mVZltmK9fZQfboyXFpiHO1g9u05Mf1h+1RMXu+fhWIymDBHeXdIokz5OcNTLnt8PzKwNctwTc/fhfJcVWZ8xJS65dvhzADnbuEf0vvBrotiJcD8090Ves0I65DTwp8YH2CZL+QZLbvpxy79fq2ePlnpTRJT9vjAO8fm2pwfMkfUmSBzd9Q5LXT46Nwp73K/Tfflms4Loh4NkZn8zMfKH041xeQYYXvEJ5wPXsv+ymKiCU9R1oc5/8Q+nn9sxtpNtKp6XbTs/pd1ua+o5/3n+/VndbvpQ7aIWA5w1p67+nCz56qdhxUw6BP+Q9f5bqbiu/4y8iIJQH/DrVMwhw7RLYdgADnd34P21VDJ7yl9vlEMqgbZxzj4NHoOPaIfDHmeNC2khj/KThIw+k5QG/721zqnY7tcxwfB1C4+82u7E8sN16V0TXBTB1SqDt8rUp4w+Gk83KsPT3JcX2Y6jLF1afl0jyphTedvJThX0uknSrJL8//VHHtn1lnanDNttzOw7faeFFtLzuh224bk1Af64HG5w/vCqZP36P6qluXeUTd6/6/avjf5Okr3YYdmoc3f2bsjZLXflz3H6vjCpkVFZ4QZ+csWuuB+vSp81jl7a18NBrlxgcuGxE3XBssz6vPNUPvyfxaki4Zgj8s8wBLs7s/7j2quA/SvoXzZiALxCYPAEPdv5vkr6Z2ZhcLum3J0+vOQBu/HMehrxK4NZrC0t9JHGxoNR2btF1fgj2OiytOkPwQLC2lI2fzB47FwNPeVgU6fnjtmvTPsdzfvA3j8AD1jPuPN9F/z8uyeMEcBCAQHsEPBI8RwicudYouCzjViPgAdDuKVpU/80fd6/erHuMpO9n3D/vX+i/2zw/MHex3PCv42Qg7tp1F1rIuJRzfnI3sNA7C681kOKXrzGQ6IpHv44JP+oI/FUib3ejrzKftS5sjkEAAosJuEF/fsaMqs12flvsNWdqCHidBddzqe3PfOM/66UHrH+5oZ50t71ug90W9+oOXJtn6KV5r03sGfC6yF6T+AtrUxwOl+SVlFLckRldKRYBK4+ATDFqhNe429BTT2IZ3uvKsxbDCDMAURoEgT/RfeM3YuXU9bLHceHyCXjBM49RiTGuznscS4pzm+e2z9P9PM4jZT8Bt2leFtpt7QEpgfR1jZeHfc7aSkUvlXTC+sdL/TrCq26N6O1KU2A5QXyd7cDlEfgfCRne0412yvOWqyEAgYYJeEXUlK5pv0bF5RFwO5bTw+3Bnas4t41uI91WVu2m29BnS7IQwa0TeEGmCHgu5JIJeIpLrELxEpSsvZCMlAsh0CqBP0voUvbgtd9s1Ypxee5Ne3Kmv394XNEvPzbeASmnJ+BF5UepCAufl/D0714YHAQgUA4BzxKouqEXfR9WjrlFW+LXmjmN//uLjs2IjXtGhghwoXjxiFk0FTXvGLWoAvHxCzPGbDRlE/5AAAJhAg+V9ONI2fX7ZlyYgNfMz1mu/rSwd5xtm8DTEwceVo2a36ng6gl4GokHmlSs6r6fWn8rRyEAgZ4JxGbueLbV9j3bWHLwnqrnHRbr6r26Y28rOTJTss17FsQartkEfM2U4GTE1bMmZjnN//YKWKkzNjKC5VIIQKABAg9OWLL7zxsIZ4xeeO2ZnMbfu9niCiLgqYg5Oya9riDbSzHl+IgA+P9KMRQ7IACBWgLvi5Th42rvmvbBxyUMopx9GHrrtHGVG3tve5gjAo4tNyq9WOYlK2cz+vxvFlfqJVkIFALJBA6NlOGzkn2axoW5bQYCqvB8gZpbPoFiS1X+7vJecycEINABgX8bEQDf68CGoQRBr/FQUirTztz3OSdn+j/Wy724z/wjeBITAAAgAElEQVRT/+x/v2PEQQAC5RLYKlKGryrX9E4tY9xYp7i7D8z7CuQM6mBE533LM882+LO/PTUGBwEIlE/gzoAI8BLsU3fMHJtIDmBOZ15C/yJQcfgcDgIQKJ8A5XhxGrF2zGI2ozzDqk7pyUrFkc6KKyFQKgHKcX3K5Kwe695PVo+t5zi4o6zrnJZkVBxpnLgKAiUToBxvnjrsH7M5k0kd6XpnpyHCpeIYYqphMwQ2EqAcb+TBDrIbeUz2n7dUzNne8bMTI0XFMbEEJ7qjJEA5vj9Zj8zYL8aby/k1AW7EBHZe2xTotsBgt9mR7/597ohZzEeNimOeCP8hMDwClOP70uyVGfW8l5JnobPh5fWlLH5YwprZs0Lgq0uFMrybqDiGl2ZYDIF5ApRj6ejMxv8p8xD5P24CFgE3ZWSSb4wbx6bYUXFMIJGJ4ugJTL0cH5NRr/vJ/8mjzxFEsJaAt7+9MSOzXCBpi1qfxnFw6hXHOFKRWEydwJTL8Rsz6vO7JT1h6pll6vHfVtK1GZnG6+WPdUvcKVccUy8HxH88BKZajk/MqMfd+O83niQnJqsQ2EbSNRmZ56KRioCpVhyr5B3uhUBpBKZYjt+SUX+78X98aYmGPf0SsAiIbYYzOzDwR5K88caY3BQrjjGlH3GBgAlMrRy/O6Px9z4J+5BNIFBHYEtJl2dkpitGJgKmVnHU5QGOQWDoBKZUjk/NqK/d+O899MTF/nYJWARcmpGprpS0dbsmdeb7lCqOzqASEAQ6JjCVcvy+jHrau5k+quN0ILiBErAIuDgjc10nyYMJh+6mUnEMPZ2wHwIhAlMoxx/JqJ9vl7RbCBjnIDBPwNP9vpuRya6XtN28JwP7P4WKY2BJgrkQyCYw9nJ8dka9bBaPzCbIDRBYn/N/fkZm+6mk7QdMbuwVx4CTBtMhkExgzOU4p/H3vi+PSKbGhRCoIeCegG9niICbJT28xp8hHBpzxTEE/tgIgSYIjLUcfzGjHr5F0k5NwMQPCJjAlzIy388k7ThAbGOtOAaYFJgMgaUJjK0c+yHsWxOof5dOcG7shsDYFejYKo5ucgWhQKAsAmMqx278z8to/IfcA1tWLsKaWgI576BcEIf0DmpMFUdt4nEQAhMgMJZy7Mb/OxmN/9DHYE0ga44jijkiwFNQhjIKdSwVxzhyGbGAwHIExlCOvd+Kl1yfXX019HsMs7CWS23u6oVA7jzU3XuxMi/QMVQceTHmagiMj8DQy7HXYbkko/H3Zm5jWIdlfDlx5DEa20pUQ684Rp7diB4EkggMuRy78b8so/Ef00qsSYnLRWUReE9GZi19I4ohVxxl5QqsgUB/BIZajr2k+lUZ9enY9mLpL8cQ8koE3pWRae+S9OiVQmvv5qFWHO0RwWcIDI/AEMuxd2P9SUY96k3bxrYb6/ByGhb/mkDuftT7/frOcn4MseIohx6WQKAMAkMrx35/f01G43+hJA8SxEGgKAInZmTiuyXtX5T109tHvDD8mAOBRggMSQDsIOmGjHrz+zT+jeQRPGmJwAkZmfkeSU9syY5lvB1SxbFM/LgHAlMgMJRy7Mb/xoz68nvr+7NMIQ2J44AJHJORqe9dW+nq4ELiOpSKoxBcmAGBIgkMoRw/TNJNGfXk14skjVEQWEDg6IzMbRFwyAJ/ujw8hIqjSx6EBYEhEii9HO8s6daM+vHcISYCNkMgVwR8QpJXGezr41cSi1bbcqWCgwAEyicQEgAee+Spy31+vE3vonpm/vjnyseNhRBYTOBlGZl9PvOX9B8BsDiNOQOBkgiEBEBJdUrMFj8Q4SAweAJHjUAEuHcABwEIlE/AC47FGtfSz3+yfMxYCIF0Ai+U9KuBF8z02HIlBCDQF4Gh1zMf7Asc4UKgTQLPG7gI8DrdOAhAoGwCpT/dh+zz/io4CIyWwLMHLAJGmyhEbJIEPA/9zZK+JemLkg4fyTzzofYAeEl1HARGT+Dpkjz1L6SESzvnPQxwEBgLgd9ZsPzsP0h6wMAj6bJaWv0Rs+fvB84c8yGQRcCL/9wxoILKLICs5OXiwgl8JFD2/qpw22PmDWkWgAcXvz4WIc5DYIwEvAPWayWd2ePc/9k1B1gHYIy5jDjNE/BYllBed3kcsgsJAMd7tsz39fssSS+X5BUBcRCAQAEEQhUHPQAFJJCk35Z0vKQfSPqhpP8p6V+VYdpgrPC7/1CXtMcDDNlRjoecetgOgZ4IUHH0BD4xWG+bekFN43UVIiCR4H2XIQCycHExBCAwBQIIgLJT+Q01jX/1JMsI6vS0QwCks+JKCEBgIgQQAOUmtMeL/CwgALz628PLNb8oyxAARSUHxkAAAiUQQACUkAr1NniOevW0v+j7v9XfytE5AgiAOSD8hQAEIIAAKDcP/FOCAPjx2qySB5UbhWIsQwAUkxQYAgEIlEIAAVBKSmy0408TGv+qV+DPN97KvxoCCIAaKByCAASmTQABUGb6e3OUqoGPfX+qzCgUZRUCoKjkwBgIQKAEAgiAElJhow07S7o7QwB4HfjdN3rBvzkCCIA5IPyFAAQggAAoLw/8TUbjX/UOvKm8aBRlEQKgqOTAGAhAoAQCCIASUuF+Gx4i6dolBICnC/7G/d7wa44AAmAOCH8hAAEIIADKygN/uUTjX/UC/MeyolKUNQiAopIDYyAAgRIIIABKSIX7bfjaCgLgO/d7w685AgiAOSD8hQAEIIAAKCcP/NEKjX/VC/C4cqJTlCUIgKKSA2MgAIESCCAASkiF+2x4Z0QAXCPposg17y0nOkVZggAoKjkwBgIQKIEAAqCEVJDcQN0RadxfLemvI9fctbZd8L8sI0pFWYEAKCo5MAYCECiBAAKghFSQXh5p2L0uwE6SfkvSzyPXvrKMKBVlBQKgqOTAGAhAoAQCCID+U+GBki6PNOqnzZh5SuTaqyU9eOZ6ft7Xw1KNk6j7/uLAIVGOB56AmA+BPghQcfRBfWOYXsu/rlGaPfbvZm75w4Tr2R9gBpgQABtp8A8CEICAJARA/9ng05EG/Xs1Jn4pco/9xN1PgFcA97PgFwQgAIFNBBAA/WaE35Pktfxnn/bnf9ct8HNo5B778fv9Rq2o0BEARSUHxkAAAiUQQAD0mwpviTTkNy9Y4nfLhCWD/67fqBUVOgKgqOTAGAhAoAQCCID+UuE3Jd0SEQD/T8C810buvVWSw8AxBoA8AAEI9ETg+ZKul+Q52qV95rubZ/9bHODaI3BEpAH3q4HdAsGnbBvsvIebtgBwmS6t3rE9rhOfR+aEwJgJxLp4Zxvc0n57YRpcOwQeIOkHEQHwsYSgPxTxo24AYYK3o7tk7K8AYotIlVa3zNrz5tHlNiIEAUm7Jgzwmi0Ipf2+l1RsjcATIw2388KBCaH/WYI/7A8w/h4Al9XS6o9Ue9zTtUtCXucSCAyKwDEDLpRV4R0U8AEZe2Ykb1wiaYuE+KT0JLwvwZ+xXzL2HoCqvA7128tc4yAwKgKvi1TyQyiso0qQQiLzO5LuieSNF2fYemTEL79vnfr+AAiAsnsIjsvI71wKgUEQ2D1SMZcuANw1h2uewLGRfHG7pO0zgvVIf4/4D+Wnqe8PMHYBEFtLIpQ3Sji3d0Z+51IIDIaAt2ctoYAtYwODAJvPZg+RdF0kT/zPJYJlf4AwtLELgCEPAvx8OOk4C4FhEzha0m3rAwKt1Ev6hIQB0wCbz3fPiTT+To8/WiJYr/oXSkufO2QJf8dyy9gFQGg9D6d9SXVOZYt3tbRwxUEAAj0RCFUcCIDmE+UbkYZ6lV3pzon4PeX9AaYsACjHzZdjfITAKAggALpLxj+ONNB+Unv6CuawP8BieAiAxWw4AwEITJQAAqC7hD81IgB+IunBK5jje6+OhHHiCv4P+VYEwJBTD9shAIFWCCAAWsG6maf/XNIvI41zE3OhXxMJY6r7AyAANsuSHIAABKZOAAHQTQ54VaRh9lz9nRowxfP97VdoQOAU9wdAADSQufACAhAYFwEEQPvp+SBJV0Ya5SZX60vZH8ArCE7JIQCmlNrEFQIQSCKAAEjCtNJFT4s0/n5ab3K9/ickhPfvVorR8G5GAAwvzbAYAhBomQACoGXAkrzQSahL/vwWTPAugKEwm+xxaMH8xr1EADSOFA8hAIGhE0AAtJuCeyTsCPncFkxgf4CNUBEAG3nwDwIQgIAQAO1mgpMiT+I3S/qNFkxI2R/AAxOn4hAAU0lp4gkBCCQTQAAko8q+8LfWl4AOdcUfn+1r+g0nR8SH1wxYZd2BdEv6vxIB0H8aYAEEIFAYAQRAewnyokgD7DXRd2sveLE/wP1wEQD3s+AXBCAAgU0EEADtZARPs7swIgA+2k7QG3yN7Q/wmQ1Xj/cPAmC8aUvMIACBJQkgAJYEF7ntgEjj79cC/2fEjyZO/4cEO9xTMHaHABh7ChM/CEAgmwACIBtZ0g0fiTS8l0jaIsmn1S5if4D7+CEAVstH3A0BCIyQAAKg+UTdRdI9EQFwVPPBLvTxf0Rs8f4A2y68exwnEADjSEdiAQEINEgAAdAgzHWv3hBpcM18++aDXehjyv4AL1h49zhOIADGkY7EAgIQaJAAAqBBmJIeKumGiAA4pdkgk3z7YMSmCySNeX8ABEBSNuEiCEBgSgQQAM2mtlf1C83797m9mg0yybep7w+AAEjKJlwEAQhMiQACoNnU/mZEAHyh2eCyfIvtD3Balm/DuhgBMKz0wloIQKADAgiA5iB7R7/Y0/9fNBdctk9HROy7S5LHC4zRIQDGmKrECQIQWIkAAmAlfBtu9g57IQHwk56X3vX+ALdEbBzr/gAIgA1ZlT8QgAAExGZADWWCHSXdGWlc/3tDYa3iTWxzorHuD4AAWCXXcC8EIDBKAvQANJOsr440/qV0r3vVP+9BEOqp+PfNICnKFwRAUcmBMaUR2F3Sfnwmx+COQGNgcYCLE/Bqe1cFOLqxfW/cm86u+GLE1jHuDzBlAeAyTt0+PQZu06POGeOmSIUQelrgXPhpash8EADR4rPpgpT19v8kzatOrnp6QnnfsxNLugtkygJgyHUQtq/Wvty4Lv5qS9rOCUuWkgCrJcCQ+fnJARcnENtx77y4F51ekbI/wJs7taj9wMYuAEI9eUOug7B99fbHy5LvWlfEzk14EiABVk+AoTL0u2JcmMAfJpSh/zvsRS9np7Y/wNgFQGxcx1DrIOxupv35cl0tE1uyFPjNwB8yx7p8w7H7Cfx9RAD49drW919ezK+p7Q8wdgEw5DoG29tvZ9zWb+aujFReJEz7CVM6480yDQd+TWA7ST+PlKHjfn11eT8+ELF9TPsDIACoy0qva9u074q66ic2dalNg/C7/ALpd0e4xQReHGlA75X0u4tv7/3Mn0bsdxl9fO9WNmPA2AXA3QlpSZ1bfp3bVhodvagYfZ2ME5wT3VaCDMFfZgEsKjX37Zx3UaTsfGTx7cWc+W4kDmPZH2DsAiC0nscQ6hpsbE+cfC1W2xwlyd19fiXAZ1oMQoOHEACLS85BkYbTFdoBi28v5sx/jsTDCxjtVIy1yxsyZQHgMk69Pj0GbtNftHyR4c4pEAg9OSAAFueAsyMN58WStlh8ezFnUvYHKGEJ41WBTVkAUI5XzT3cD4GREkAA5CfsIyT5/X6o23JIyju2P0Dfmxjlp9DmdyAANmfCEQhAYOIEEAD5GeCESONvpr+d721vd+wxgf0BEAC9ZS8ChgAESiWAAMhLGc/p9/Kaoad/P1EPzX0hEqfPDi1Cc/YiAOaA8BcCEIAAAiAvDzw/0lBaGOyV52URV499fwAEQBHZDCMgAIGSCCAA8lLjOxEB8Pk874q5OmVHwyHvD4AAKCarYQgEIFAKAQRAekp458xQ17/PPS3du+KuPCYSv1slbVuc1WkGIQDSOHEVBCAwIQIIgPTEPiPSQF4tyU/SQ3U7SvK8/5DI+U8DjRwCYKAJh9kQgEB7BBAAaWxTNs95VZpXRV811v0BEABFZzuMgwAE+iCAAEijHts+905J/yLNq6Kv2j/SA+DegSHuD4AAKDrbYRwEINAHAQRAnPqWkq6JNIynxr0ZzBWx/QFOH0xM7jcUAXA/C35BAAIQ2EQAARDPCP9XpPH3U/Efx70ZzBWx/QG889zQ9gdAAAwm+2EoBCDQFQEEQJz0VyIC4Ly4F4O6ImV/gIXbixYaUwRAoQmDWRCAQH8EEABh9ntHGn8//R8W9mKQZ98aiffQ9gdAAAwyG2I0BCDQJgEEQJjuOyIN4U2SvDzw2FzK/gBPHVCkEQADSixMhQAEuiGAAFjM2Rv6hPj46f9vF98++DNj2h8AATD47EgEIACBpgmEGjifm7J7WeTp31sC7zpiQH8Rib8F0J4DiT8CYCAJhZkQgEB3BBAA9ay3kHRZpAE8q/7W0Rx9kKSrIgzeMpDYIgAGklCYCQEIdEcAAVDP+uBIw+en3yfV3zqqo2PZHwABMKpsSWQgAIEmCCAA6il+MiIALpbkXoKxu5T9AQ4fAAQEwAASCRMhAIFuCSAANuf9SEl+v++n/EWfv978ttEeeX+Ag/lcIOkBhcceAVB4AmEeBCDQPQEEwObM/y7S4N0uya8I/mwin5dEeFgEeKvkkh0CoOTUwTYIQKAXAgiAjdi3SZj6t6hXYMrHSx8QiQDYmM/5BwEIQCA4z93iYGoutgLelBv5UNx/JWmXgjMLAqDgxME0CIydwKGSTijwc1ege3eKAuCXAR6hBpBz0gcKLsRTFgAu4yXWPU8vOL9gGgQaIbCbpGsH2qhMTQA8caDpVIr4uE3SgxspNc17MmUBUEr+qLPD22x70C0OAqMkcPWAGxU/OUzJfXDAaVVXufZx7GmFZpixC4BQT14f+SAnTD8g4SAwOgLu9s8pCCVeO7pEWRChnSV5n/sS02BINn1uAd++D49dAAwpj9TZWqpw7DvfEv6ACfi9W11mH9KxAePPMv1vRpBWpeSrP8gi383FCICy6yLXlTgIjIrAc0fQqIwqQRZE5iEJ4zR+KOkUPvp7ST+P5OsS9wdAAJQtAI5YUDY5DIHBEvBmKrdEKstSntrq7HCX+BTcXyak0b5TAJEYx1dHeN26Nup820S/urps7AJgyK+v7pS0VVcZgXAg0CWBxyY8MdU1viUcm8osgK9FGrRvd5lhBhDWEPcHGLsAcFktoc7ItcGDFw8aQJ7HRAgsTcDq9rWSPirp7MI+9wQqjikIgD8KxL+qzP5q6ZQf741nRLh9v7D9AaYsAFzGS6t3XBe+vsCeovGWWGIGgRoCoSeHKQiAd0UashskPbSG29QP/R8RbhZPvqYUN2UBMIVyXEo+w44MAvtI8tKr50ryfHkPLnKXkHdis2r1uyEvLnK5pE+vPVF4b3J3P+KaIzBlAeBG4Y5IQ3Zsc6hH59M/Rdi5l6AUhwAoJSWGb8dO623RZ9bbJrdRbqvcZrntchvmtsxtmts2D4rde/jRbiYGB0j68jqwqos199sD605nBalGEmTKAuAVkQbMhXnXRiiP05MXRvh5YJoryxIcAqCEVBiuDbtL8kJhbuxz26vqeouEcyS5DZyce7mkm1eAV0Gc/754qkAbykFTFQAPXFfv8/lp9v+ZDTEeqze/mTDLxTMGSnAIgBJSYXg2PFnSZS20WzdJeunwcORb/AxJnhY0W7G28dvztK3ScHkEpioADknIk94bABcm8P9GOP6kkP0BEADhdOTsRgJ7tdTwz7d97s0e5aZI20k6P1I5zMNY9b+3JH3bxnTkX4TAVAWA39+F8psF5QMi7Dgt/Z4kl7sQyxKWeUUAkFtTCZyakKdD+X2Zc55q7DZzFO5Ja90bt0cqhWUgpd7jLpuHj4Jk+5GYogBIabRYmSw973n9/1DZLGF/AARAenpO9UoPML8ikpdD+XzVc24zB9/r6OVvY08Eq4JKud+juxl5GS/KUxQAsW5rD/T5rTg6rlgn4Cf8WJnse38ABADZNUTgUT0/tFblx23n4SFDSz4XWyK0imRX356O8biSgRVg29QEQMrANQsEXDoBL3l9VUQE9M0UAZCenlO78gkF7gT6qqElgrtMl2nY/aT+LUlvWBsz8JT1aVdbrr8P8aC+Z6+/1/c72dCqdYvC9tQLBgcuzk1TEwAp+bTvp9XFqVXumZj4d69Kn/sDIADKzTt9WuZe4mX2UXBb5DbJm2O5jXIb4/zttstThz3I+HhJfrf/yyXbxsH0BHiqRG63/wWScgcHGa7nbv80E6gXZRjNAIuGS8uUBIAH9f0gknc8OBCXTyBlfwCvG9CXQwD0Rb7ccD1OLLYQ2PyD5fVra9h4Srvbohznkf6xumc+LLepB+YE0se1Llg5CseDLB7dgKEeaxBqvOZhWnDgNicQYuhzY3IeYDOfL+b/W7njliNQ8v4ACIDl0nTMd12aUB9U9YMfIp/TAIzHSLoyI1wLlO0bCLc1L1JVjdWMN39o0lmFfT4Dpl8z4DYSmJIA8MI+VYGu+/Z77AdvxMO/DAL7RfiaeV/7AyAAMhJyApeenJBXqzrCvYK5T/wxhG6LUnvNvxfzrK/zL0iE6MF4+7dopPcIqBIr9O33NqUsTdoijiyvpyIAfidhDIlfL+FWI1Dq/gAIgNXSdUx3P2J9zf5QW1GdO7rFiHu6fOr4A/d4F+U88jfl/Ykbf0+xaNulDO5yonrAIe5+AlMRAN7UpyrUdd8eLMraEffni2V/eeBSHd/qWF/7AyAAlk3R8d3nJ+oqP4a+uxiz4kGIbiNDdvic62m3ucW4ExKM9mYq7hbsyvkVQwykz3chSLqK86rhTEEAPETSdZG88e5VQXL/JgLbFLo/AAKADGoC+0bqgar9eE2HuDwNMeV1wHEd2hQMaovERRP6mMvo7RerRFz0/Y1g7KZ1cgoCwIN3FuWF6rgH5+CaIeDtTyuudd997A+AAGgmbYfuS8ry9N6ttmuX8hrbdXUR7vmRAu5Cf2FPlvoJJDYrwWqr6JGVHbKbggCw4KtriKpjvBZqNsOlLLX8F80GGfUNARBFNPoLnAdiT9puO7buiYR3tq3qpEXfh/Vk24ZgPaVukYE+bsi7bbij2z+xfd5to19h4MJTKYtRnCsk1B9H8qrzghfywDVLILY/gGfvdOkQAF3SLjOstybUBX1u0btHgkDxINtenQcixFSUu+H7dl55LCRSPBcTN34B4J29QvnAi0ptRUZonMBTI9ydJl2uuIgAaDyJB+fhNZE86W3r+3Zfi9jocXV+Bd+bOzRioAu2B1r07U6K2GkRU9Soyp6AjfkVwD9PeB3U9NoUPSVjccG6bJW0PwACoLgs0qlBnscfe3B9c6cW1Qf22Ei75fbV4ro3F1tM5abeLNsY8MMSQFrMTN2NWQC8LJIHvC7ELlPPAC3G33OoQ70vfuLqqvcFAdBiQg/Aa7/mC+VFi4NSxoX9LGLrh/rkfUnEuI/1adxc2LE9A942d/0U/45ZAHw8klctZnHtEUjZH6CJZcFTYoAASKE03mveFakLPE24FPfJiK3ehKg3F3u37tUBS3GfioC0IrTym/InpIqHPgjwHyPp770BcO0SOD2SBv+m3eB/7bt7Gvz+dFF+d14ZsgsJeeq5xele5Qc/LJTivABRZVfdd69jFUKFyMZ6mcVSnBdOqAPIsTQuXulxyC60Kt13JXl3QFy7BP4kUAbdm9hlGnw6YMt/bRdD676nrMpKvbe43itpLJBn0IXSym1wby5kmJ+kS3LPjIAMxYVz9z0xlZSeubY8cG0Pii/U5AHv7FXCQNXc+Az1+rfXpIHnW3e9MdC/lVT3ftWLw3j9kCG72IMZ9Vm4UX1GYYkfS69ezHU3WsiwXpVJDRHvpRyyl3NxPjVYB3XIi3p4lS2v/+2pn6dJ2nVQMRi+sZ625G5NT3HyduDvk/SHPUXLm0L9r/W88H1JXvL1oT3Z0mSw1GXxuizE6IAmE6MBv2KCrqvBsxuiggBYLZOFMmCp5zZkAP5AAAJFEii1/hiKXQiAxGwdStDSXgE8ix6AlXpASuvRScyiXAaByRGIPTGG6m3OSbwCSCwysYzGIMDx9BIMfRBgYpbmMggMngCDAFerdxkEmFgEmAY4rmmDIfU/9GmAiVmayyAweAJMAwzXy6F6zuc+UVAOKHoaYGwhoLMLAslCQPHECFUcCIA4P66AQAkEKMfhVHhn5HXw9eHbOz0bW7/mok6tmQssthTwzXPX9/U3ZSng0t779MGKiqMP6oQJgWYJUI7DPGPjwTx+zatFluDqpqrO9mB8sE8jUzYDelyfBq6HfXJE8TnB2Qxo/LsBFpAVMQECrRNAAIQRp2wG9JawF52cTdkM6CmdWLIgEDeasYGAX11wb5eHvdjLrGqa/311l8YUHBYVR8GJg2kQSCRAOY6Dim0H7PFtfbuvR9ott729bgdsQBdEjPTT9e49knxVxD6LgTf2aF9JQVNxlJQa2AKB5QhQjuPc/IQ//yA4///lcW9au2LPhC2LvWpl7+75CSD7GqjgJT3vjNhngVLK1o99JyYVR98pQPgQWJ0A5TjO0HW+6/75Rn/2v9uObeNetXJFbIC97fRYht6duyBuj4C0sa/uwdJYF4rt+nYPdpUaJBVHqSmDXRBIJ0A5TmPlJ+jZBr/u97lpXjV61WsT7PJr7WLc8QkGW23t36HFqbv/7dOhTaUHRcVRegphHwTiBCjHcUa+4jEJ7ZZFwevSvGvkKm9LHuuZsE3et6IY58GAKb0Ad0nauwOrj0xM2CLeoXTAIzUIKo5UUlwHgXIJUI7T0+afEtuKI9K9XPpKP4zenWCPByj2PvhvPpYpYwGsXBzBJ83f3OB/q7W6rpz5Yx5BuXOD4Y7BKyqOMaQicZg6Acpxeg7wbqCxmWxV2+GdRNty3q02pfG3Ld7avkgXmxFQgXQXxxsajoF3JzwnsfG3HSc2HP4YvKPiGEMqEoepExnyZxYAABo+SURBVKAc5+WAkzLajS+svRLwOgJNOs9CS+n2d7t1XpMBN+2XV0/K2YjCe7Lv24ARL0h8BVEJkL5mJTQQ1Va9oOJoFS+eQ6ATApTjfMwpo+6r9sN8n5cfxGZ3eJE8r0FT+Rv7drh9zUrYzPhFBw7KUDNVhH8gyasK5jirMM/xvyEDoMMzxFKWecyJbxfXUnF0QZkwINAuAcpxPl8vF58yjq1qs/zt/WXcBuX2CHjZeT+EzvoV++3XFF0Oos8nOHNHbAejRZH95XoXxwlrCww9TZLfz7hrfztJe0g6TNI71t6BWK2lvreZDcuDEPeasZOfGwlQcWzkwT8IDJEA5Xi5VHuUJLcRs21Gym+3RW6T3Da5jXJb5TbLbdcj1tsyd/N70HlsXZpF4T1nuSj1d9fRS4BcFPkmjnuAxWAUVE/JRsXRE3iChUCDBCjHy8N0G5E6GK+Jdinmh8cGvGT56PR7p9XQMk/qMSi55z0ugfn+8bxAxRFnxBUQKJ0A5Xi1FHIvce7rgNw2KeV6N/5NjDVYjcaKd3tHI89bTIlwG9dcxXS/5BSk4khGxYUQKJYA5Xj1pNlR0uU9tlte6e/xq0ejDB88cvGbHcO0enp7GdEfjBVUHINJKgyFwEIClOOFaLJPvHOJQe2rPsh+SdLW2ZYO4AYP7PtZB0Lghz3vQDiApKg1kYqjFgsHITAoApTjZpPLg/ou7qDdulGSZ9GN3r1Y0k0tAHUitbnK4NgThopj7ClM/KZAgHLcTiofsD7af9Un/Pn7PZ3w8HZMLttXb3zglZU8/W8eSup/9yicLumRZUd1ENZRcQwimTASAkEClOMgnpVPuq1xm3PLCu2WB6Z/dkzv+Vel6pGXXp73y5I8cM+DIDwn07MI7lkXCbeu7YF8qaRPrYH3NMOHrxoo928gQMWxAQd/IDBIApTj7pLNbZDbIrdJl0lyG+UHWrdZbrvchrkt86q3frfv9QD27M48QoJAOgEqjnRWXAmBUglQjktNGeyCQMEEqDgKThxMg0AiAcpxIigugwAE7idAxXE/C35BYKgEKMdDTTnshkCPBKg4eoRP0BBoiADluCGQeAOBKRGg4phSahPXsRKgHI81ZYkXBFokQMXRIly8hkBHBCjHHYEmGAiMiQAVx5hSk7hMlQDleKopT7whsAIBKo4V4HErBAohQDkuJCEwAwJDIkDFMaTUwlYI1BOgHNdz4SgEIBAgQMURgMMpCAyEAOV4IAmFmRAoiUBobes7SzIUWyAAgYUEvPzsor1UXMZxEIAABDYjcHWg4nCFstVmd3AAAhAoiYD3kV/U+Pu491nBQQACENiMwPcjlcfvbXYHByAAgZII/H6kDH+vJGOxBQIQKIfARyKVx7PKMRVLIACBGgJ/FSnDZ9XcwyEIQAACOj5SeXwARhCAQNEEPhQpw8cVbT3GQQACvRF4aqTy8L7WD+3NOgKGAARCBFw2XUZDYwCeEvKAcxCAwHQJ/DNJ90YqkMOni4eYQ6BoAkdGyu49kn676BhgHAQg0CuBL0YqkWslbdOrhQQOAQjME9hW0vWRsvu5+Zv4DwEIQGCWwHMjlYi7F18/ewO/IQCB3gm8IaHcHta7lRgAAQgUTeA3Jd0UqUz8muDPi44FxkFgOgQ8dudXkTJ7Az1308kQxBQCqxB4daQycS+ABxvtvUog3AsBCKxMYJ+EgX8ur69aOSQ8gAAEJkFgO0nXJYgALyt60CSIEEkIlEfgyZJuTSinP5HkMQI4CEAAAkkE/jKhYvGThV8HvFLSlkm+chEEILAqgYesdfn/94QZOy6f/jxj1QC5HwIQmBaBB6x18XvVsKoSiX1fKuk/SPJ9OAhAoHkCLluHSroso1x6YSDKZPNpgY8QGD2B7SX9KKOysUjw9X8n6U9ZNGj0+YMItk/Ai/u4LJ0o6YrMsmhR7td5OAhAAAJLEdhDkkcQx3oA6s57ZPKVkr4r6ZuFfWzX7ZLukOS1Dbq0zxuy+N2tw/a3N2HqMnyHdfH64DHbcLOk83uwwTvTOQ38uabj8B1f52sPZvWsl9LyqO1xHo2N7q8rdz7muO2+VInnJghAAAIzBPZdbyQWVTYcX04gwQ1ubeQBC5rHzJRffkIAAhBYicAfrO8l3kaFhZ80hOSBZvKAew28JTAOAhCAQKMEHibpE0u+DqCCb6aChyMcF+WBz0rasdESj2cQgAAEZgg8UNKL1z63IQSWGhexqPLmOA37snnA40iOkrTFTDnlJwQgAIHWCPwrSe+QdBdCACFAHuglD9wp6W2SdmqtlOMxBCAAgQCBXdam+/0t4wN6aQCWfWLkvmH3Nvg9/7GSXPZwEIAABHon4O7HP1l7Ejxa0qclXc1TIaKAPNBIHvB0yU+tr/73WLr6e6/rMAACEEggsLWkfy1pT0netKSET+yVRZs2nh1pED/fAaPYKnLuzWmTgf2+J8KhzfA/EAn7qx3EPyV+LjMuOy5DOAhAAAIQaIDALyMNQANBLPTiPZGwz1x4Z3MnvOhQ6BXAC5sLaqFPd0dsWHhjAydOioTtJ20cBCAAAQiMkAACAAEQEkAIgBEWeqIEAQhAwAQQAAgABAB1AQQgAIEJEkAAIAAQABMs+EQZAhCAAAIAAYAAoB6AAAQgMEECCAAEAAJgggWfKEMAAhBAACAAEADUAxCAAAQmSAABgABAAEyw4BNlCEAAAggABAACgHoAAhCAwAQJIAAQAAiACRZ8ogwBCEAAAYAAQABQD0AAAhCYIAEEAAIAATDBgk+UIQABCCAAEAAIAOoBCEAAAhMkgABAACAAJljwiTIEIAABBAACAAFAPQABCEBgggQQAAgABMAECz5RhgAEIIAAQAAgAKgHIAABCEyQAAIAAYAAmGDBJ8oQgAAEEAAIAAQA9QAEIACBCRJAACAAEAATLPhEGQIQgAACAAGAAKAegAAEIDBBAggABAACYIIFnyhDAAIQQAAgABAA1AMQgAAEJkgAAYAAQABMsOATZQhAAAIIAAQAAoB6AAIQgMAECSAAEAAIgAkWfKIMAQhAAAGAAEAAUA9AAAIQmCABBAACAAEwwYJPlCEAAQggABAACADqAQhAAAITJIAAQAAgACZY8IkyBCAAAQQAAgABQD0AAQhAYIIEEAAIgJAAuErSFhMsF0QZAhCAwOgJIAAQACEB4HMXIAJGXw8QQQhAYIIEEADTFgBHKRz/ShycP8GyQZQhAAEIjJoAAiDcAL6wg9S/O9IIt2nCjpJ+FQm/EgHfaNMQ/IYABCAAgW4J9CkA3h1peD7cAYrvR2wYuwAw4rdFGFQCwN9f6SBNCAICEIAABDog0KcAeE2k4XlTB/EvQQDcFuBwTwcMHMQHAzbMCgD//nxHNhEMBCAAAQi0SKBPAfAwSW7g5hsY/79X0i4txrvyugQB8L4FDMzhvMrQDr7PDNgxn0af7sAegoAABCAAgRYJ9CkAHK0ja95B+530y1uM86zXJQiAB0m6oqbx/bmknWaN7eD3R2rsmG/8q/+f6MAegoAABCAAgZYI9C0AHK29JZ2z3gh+WdJjWoprnbclCIDKrmMlXSTpEklvl7RNdaLjb3fxV4187PtjHdtGcBCAAAQg0BCBEgRAQ1FZypuSBMBSEWjppi9liIDTW7IBbyEAAQhAoEUCCIDw024XswBaTN6VvD43QwR4HAMOAhCAAAQGRAABgAAIZdevZYiA94Q84hwEIAABCJRFAAGAAAjlSO8D8N0MEXBSyDPOQQACEIBAOQQQAAiAWG60CPB+ALEBgdX5N8c85DwEIAABCPRPAAEQbtimPAZgNndaBPwgQwR0sYjTrH38hgAEIACBTAIIAARAapbZUtJlGSLgtakecx0EIAABCHRPAAGAAMjJdRYBP8oQAcfkeM61EIAABCDQHQEEAAIgN7dZBPw4QwS8KjcArocABCAAgfYJIAAQAMvkMq9SeE2GCDhqmUC4BwIQgAAE2iOAAEAALJu7LAKuyxAB3vcBBwEIQAAChRBAACAAVsmK20q6PkMEMKtiFdrcCwEIQKBBAggABMCq2WmHtV0db0oUAd7p8dmrBsj9EIAABCCwOgEEAAJg9VwkWQTcnCECntlEoPgBAQhAAALLE0AAIACWzz0b79xJ0m2JIuBeSYdsvJ1/EIAABCDQJQEEAAKgyfy2s6SfZ4iAg5sMHL8gAAEIQCCdAAIAAZCeW9Ku3EXSLzJEwEFp3nIVBCAAAQg0SQABgABoMj9Vfu0m6Y5EEXCPpP2rG/mGAAQgAIFuCCAAEABt5bTdJcXyV7WDoEXA49syBH8hAAEIQGBzArEKevM7xnXk+5GnVOatr5bee2aIgLslPW614LgbAhCAAARSCSAA6AFIzSvLXrePpLsiQqvqCfB1ey8bEPdBAAIQgEA6AQQAAiA9tyx/5WMk+Qm/auhD33dKetTyQXEnBCAAAQikEEAAhBslXgGk5KK0a/bNFAF7pXnLVRCAAAQgkEPAW7rul1AhHyhp6xyPB3YtYwC6TbAnSPKAv1APQHXOswge2a15hAYBCEBgnATcrfr+9W1cvSZ7VdGmfN8g6eOSXIGPySEAuk/NJ0rySoAp+e52SY/o3kRChAAEIDB8AlusReHVmTu2xSrmWyWdLGmr4eMRAqCfRDwgUwTs2o+ZhAoBCEBgmAReI8lPULEGfdnzHtT1DkkPGiaeTVYjAPpLvKdmiACLzh37M5WQIQABCAyDgOdSX9tiwz8vGLwBzKHDQLOZlQiAzZB0euBpklJfR90i6eGdWkdgEIAABAZE4NiMCnW+IV/1/+cH2BuAAOg/c1s8poqAn0l6WP8mYwEEIACBcgi4G/7bHT71LxILV0vavhwsUUsQAFFEnVzw3AwR4AGp23ViFYFAAAIQKJzANpJ+VEDjX4kCvxIYyvQtBEA5mfv5GSLgp5K2Lcd0LIEABCDQPQHP579qycbf3a5+mnLPwT9KOk/S+ZI+Iemr6+MIUqdrVY1/9e094YfwvhYB0H2eDYV4eEZevh4REELJOQhAYOwELsioMKvG+YeSXpQ4jc+vFp61LhJS39NW4fgprfRFhBAA5ZWQl2bkab9yGsN01PJSAYsgAIGiCZyaUVG6Uf6GpD1WiJGnYXkxoBwh4DBLdgiAMlPn5Rl5+0pEQJmJiFUQgEA7BDx9qnrSjn27O/6gBs3wbm3XZYR/TINhN+0VAqBpos3598qMPHbJAGegNEcKnyAAgckQ8Hv/XyRWjn5F4EGCTTuvMPjJRBs8jmCnpg1oyD8EQEMgW/LG01pjArc671dbQ16UqiWEeAsBCIyJwGmJleI5HUT6bYm2eKBhiQ4BUGKqbLTp+MQ8ZiFwkSSLUxwEIACB0RHwIigpI/M9or8rd3piBe0VCktzCIDSUqTenjcm5jGLAM9kwUEAAhAYHYEzEyrCmyX5NUGX7gcJdn2vS4MSw0IAJIIq4LK/T8hj1euAUnucCsCICRCAwBAJ+P2mN+CpKrm6b4/Q97a/XTuv/ndXxDbbW9rWrgiArnPKauF586m6fF93rPQZKKuR4G4IQGBSBF6SUPmd0SORVyTY974e7asLGgFQR6XsY+9OyGeVIPD+FLnuyZL8Wsu9Wu5Ns+ienfrq33euz4SxyDhB0u65gXA9BCAAgRwCF0cqPldUbYz4z7HRm7VUlW/dt3d0K8khAEpKjXRbPhTJZ7N579MJ3npr4m9KuifD39kw/NvTbT+IGEigzSUQgEA2gVjldFa2j83f4Dn/8xXj/P9dmg92aR8RAEuj6/3GlPEwVd7z8tZ1zksPt7F19qWSnlgXIMcgAAEI5BI4MKFh3SvX0xau97KssVkKr20h3GW9RAAsS66M+z6SUC4qEfCxGZPdOHup6upcW9+ekeAVNHEQgAAEliYQGwHtrvdSnOdihyrUr5RiqCQEQEGJsaQpX4jkt9m8+P6MBaxm71vlt1/NHbFk3LgNAhCAgNxohiohV4KluLdGbPUGLqU4BEApKbGaHV+O5LlQ2enqnFfOZJGi1dKZuyEwSQKxLX/fUBCVQyKV8R0F2YoAKCgxVjTl3Ei+66qhD4XjPQtK3yFzxWTgdghAoGkCno4Uqli8OVApzmsChGz1GIFSHAKglJRY3Q4/XfudeyjvLXvOedbrXPgzOyVwGf/Ywnj1tMYHCEyKQGzzn30LoxGrGEsxFwFQSko0Y4dFgDfAiuW/2PlrJHnNCvdm1U2t3XX9vf7nJN2+RHjsWdBMeuMLBCZBwN3moUprz8IoxJ6SSjEXAVBKSjRnx7IiwHnWDfoyi/ocKumKSBmdL79nNxdlfIIABMZMwIuMzFcgs//3Kyzys7bN/3ZFW4pDAJSSEs3a4WWzfxkpM7P50vmgiWWqn5WxVbfD9zoEOAhAAAJBAjdGKrPDgnd3e9IV6WzlOv/b06JKcQiAUlKiWTuOjOTB2Tz5mmaD3jTI71uJ4bss7NBw+HgHAQiMjMBlkQrl5ILi+9yIrSUtB4wAKCjjNGSKR9mnPv2/qKEw67zxGIJZobHot6cw4iAAAQgsJOD1zBdVID5e0h7oXg89ZOuFC2PZ/QkEQPfM2w7xtEj+q/LmG9s2ZH0gYRVe6PvRHdhCEBCAwEAJHBep1PzEU4rzCOpQZVfCngUVKwRARWIc3376d7d6KP/5XJtP/vMkz0uwpyQBP28//yEAgZ4J7JFQiXhHs77dzgl2PqNvI2fCRwDMwBjBz7ck5L9ltgheBY2nEaZMFfTUQhwEIACBWgKxqYAlPEWcEamAPQPAI7RLcQiAUlKiGTtuiOS/OyVt20xQWb7ExsW4V+I9WT5yMQQgMCkCKeudu6egL5fS/eqlUEtyCICSUmM1W/aONP5uZN+8WhAr3e0VAEOvJkra0GuliHIzBCDQPIEnRSoQVy5u0PpyH02w7yV9GbcgXATAAjADPBzbMdNjA7bsMV4pvQA79WgfQUMAAoUTuDWhkX1hD3HwQkSx1f+8jnpJ3f/GhADoIbO0FKR7l0JP2F9sKdwcb/0KImTjMTmecS0EIDAtAl60JFSB+Nw9Sy5nuizJ7RJXPzt12QBavA8B0CLcjr2Ozf1/Zsf21AUX27HwnLqbOAYBCEDABLzOecqI4tskPawDZH6ij21VXImSPgZfxRAgAGKEhnF+q4gwdu9Un93/FcVXRuy8srqQbwhAAAJ1BI6IVCJVD4EHFe1S50FDxzy96UeJtpzQUJhNe4MAaJpoP/7tH8mHfnVWgtsnYqfFPQ4CEIBAkMClkYqkEgHuFj0w6NNyJx8l6eZEG366XBCd3IUA6ARz64F4E54qz9d9X966BWkBuAevzr7qWEn7ZKTFiKsgAIHOCfjJPmXFM1cs7v708rxNdYGeKOneSEVWVWi+zk89pToEQKkpk2fXUZH8+N0871q9OlR2XFZxEIAABKIEnhOp9KpGuPr2QkJvWkEIvGxtCVW/Vqj8S/n2O8+SHQKg5NRJt83TS0P58TvpXrV+JQKgdcQEAIFpEHCDHqr46s55lsDXJb14TRB4BP8i54FVnrv8OUmx6Ut14XhVwNIdAqD0FEqzz9th1+XB6lhJC1CFpsu6bOIgAAEIJBM4PVL5VZXgom/Pz79Rkkcg++N39rFlhxf5VR3/QrL1/V6IAOiXf1OhHxQpAzc1FdCK/jwiYqeFNg4CEIBAFoGTIxVL1TB38d31ZitZoOYuRgDMARno3+0j+d/d7iW4F0TsLHnAbAn8sAECEFhAwO/bQ92LbTf+DtsDBIfkEABDSq2wrbFBsU8I397J2U9GBEAJG3p1AoJAIACB5gk8RtItkUqmDSHg+cttTDdsntBGHxEAG3kM+d9PIvneM2H6drGy+c6+DSR8CEBg2AQ81/iUjKl6qwoCd/mXuMpfSioiAFIoDeMaN/ChvPzznqPx+Ih9tt17auAgAAEIrExgN0neQrit1wLurix5jn8KQARACqVhXPPkhAa2j42yKnouLyGB4sG4OAhAAAKNEvCiQX468hNQqAJKOeeVBT8uaa9GLezPMwRAf+zbCDm2T4ZXr+zD7ZtQ9izWcRCAAARaI+A1070r3xWJc/s9sOqadQFxcGtW9ecxAqA/9m2EfGZCQ/vWNgKO+OkyFBPYnsqIgwAEINAZga3X3zt6q1Qvp/pSSf59wIDf6+fAQwDk0Cr/2p0TXnn5lZjfx3fl3pPQ+DP9r6vUIBwIQAAC6wQQAOPLCl9JaHD9qsBioW3nMQexJ3+f73NsQtsM8B8CEIBAkQQQAEUmy0pGebW90Hr7VYPsKXltigAvo50yAPe6lWLLzRCAAAQgsBQBBMBS2Iq/6e2JT97uCWhj6t3xieFbjLQRfvEJhIEQgAAE+iaAAOg7BdoJ32thXJ/YCPsp3etm+J5VnWfcXJAYrhv/D68aIPdDAAIQgMByBBAAy3Ebwl1eB8O761Vd/rFvvxLwINhlnPci8FTblFcPlR2eGdCE6FjGXu6BAAQgMHkCCIBxZ4FnJb6Hrxplf1drXTwt0kDvsLZr5sskfXeJMLzbZpvjD8adqsQOAhCAQAMEEAANQCzcCzfSsw18zm+/HrhtfZvsiyRdtr4uhkVCjj+z13ptjb0LZ4Z5EIAABEZPAAEw+iTeFEGvcZEyIn+2oW7jt4WDVwXEQQACEIBAzwS+FXmSe3rP9hF8cwS8wFXOmICmBcCNkjxFEQcBCEAAAgUQOCYgADygyysl4sZD4JGSrg2kedONfuWfd8zccjwYiQkEIACBcRC4ekGDcOw4okcsagi8pqPegF9IOqwmfA5BAAIQgEABBLaS9ClJHpzlJzbvmnhkAXZhQrsEPAr/cy2NDfC7/pMkPajdKOA7BCAAAQhAAALLEthR0mnro/2rLvtlv6+S5N4FGv5lU4P7IAABCEAAAj0Q8C6B75J0+fp6ACEh4FkF7i06X9LrJXkVQBwEIAABCEAAAiMg4IF7nrZ3sKTnrG+V/SRJe44gbkQBAhCAAAQgAAEIQOD/B+88fQqWbNnsAAAAAElFTkSuQmCC;" parent="1" vertex="1">
          <mxGeometry x="-76" y="1792" width="150" height="150" as="geometry" />
        </mxCell>
        <mxCell id="O3D1N8Hfds_VMY7Xwt8E-122" value="" style="shape=mxgraph.signs.tech.camera_2;html=1;pointerEvents=1;fillColor=#000000;strokeColor=none;verticalLabelPosition=bottom;verticalAlign=top;align=center;" parent="1" vertex="1">
          <mxGeometry x="-384" y="1893" width="48.13" height="35" as="geometry" />
        </mxCell>
        <mxCell id="O3D1N8Hfds_VMY7Xwt8E-139" value="" style="edgeStyle=orthogonalEdgeStyle;rounded=0;orthogonalLoop=1;jettySize=auto;html=1;entryX=1;entryY=0.5;entryDx=0;entryDy=0;dashed=1;endArrow=block;endFill=0;strokeWidth=1.5;strokeColor=#4D4D4D;" parent="1" source="O3D1N8Hfds_VMY7Xwt8E-136" target="O3D1N8Hfds_VMY7Xwt8E-106" edge="1">
          <mxGeometry relative="1" as="geometry">
            <mxPoint x="-114" y="2086" as="targetPoint" />
          </mxGeometry>
        </mxCell>
        <mxCell id="O3D1N8Hfds_VMY7Xwt8E-136" value="작가 분류 정보" style="rounded=0;whiteSpace=wrap;html=1;fontSize=20;fontStyle=1" parent="1" vertex="1">
          <mxGeometry x="-93.5" y="2047" width="185" height="76" as="geometry" />
        </mxCell>
        <mxCell id="O3D1N8Hfds_VMY7Xwt8E-146" value="" style="edgeStyle=orthogonalEdgeStyle;rounded=0;orthogonalLoop=1;jettySize=auto;html=1;" parent="1" source="O3D1N8Hfds_VMY7Xwt8E-142" edge="1">
          <mxGeometry relative="1" as="geometry">
            <mxPoint x="-1449" y="1735" as="targetPoint" />
          </mxGeometry>
        </mxCell>
        <mxCell id="O3D1N8Hfds_VMY7Xwt8E-142" value="작품, 작가 정보" style="rounded=0;whiteSpace=wrap;html=1;fontSize=20;fontStyle=1" parent="1" vertex="1">
          <mxGeometry x="-1541" y="1983" width="185" height="76" as="geometry" />
        </mxCell>
        <mxCell id="O3D1N8Hfds_VMY7Xwt8E-149" value="" style="edgeStyle=orthogonalEdgeStyle;rounded=1;orthogonalLoop=1;jettySize=auto;html=1;entryX=0.5;entryY=1;entryDx=0;entryDy=0;dashed=1;endArrow=block;endFill=0;strokeWidth=1.5;curved=0;strokeColor=#4D4D4D;" parent="1" target="O3D1N8Hfds_VMY7Xwt8E-100" edge="1">
          <mxGeometry relative="1" as="geometry">
            <mxPoint x="-1330" y="1690" as="sourcePoint" />
            <mxPoint x="-1323" y="1706" as="targetPoint" />
            <Array as="points">
              <mxPoint x="-1330" y="1690" />
              <mxPoint x="-1330" y="2160" />
              <mxPoint x="-527" y="2160" />
            </Array>
          </mxGeometry>
        </mxCell>
        <mxCell id="O3D1N8Hfds_VMY7Xwt8E-159" value="AI : Python" style="rounded=1;whiteSpace=wrap;html=1;fontSize=20;fontStyle=1;fontColor=#4D4D4D;strokeColor=#666666;" parent="1" vertex="1">
          <mxGeometry x="-140" y="1310" width="160" height="50" as="geometry" />
        </mxCell>
        <mxCell id="O3D1N8Hfds_VMY7Xwt8E-160" value="서버 : C++" style="rounded=1;whiteSpace=wrap;html=1;fontSize=20;fontStyle=1;fontColor=#4D4D4D;strokeColor=#666666;" parent="1" vertex="1">
          <mxGeometry x="-1580" y="1310" width="160" height="50" as="geometry" />
        </mxCell>
        <mxCell id="O3D1N8Hfds_VMY7Xwt8E-161" value="&amp;nbsp;클라이언트 : C#" style="rounded=1;whiteSpace=wrap;html=1;fontSize=20;fontStyle=1;fontColor=#4D4D4D;strokeColor=#666666;" parent="1" vertex="1">
          <mxGeometry x="-1300" y="1310" width="160" height="50" as="geometry" />
        </mxCell>
        <mxCell id="O3D1N8Hfds_VMY7Xwt8E-165" value="&lt;b&gt;&lt;font color=&quot;#333333&quot; style=&quot;font-size: 15px;&quot;&gt;NO&lt;/font&gt;&lt;/b&gt;" style="text;html=1;align=center;verticalAlign=middle;whiteSpace=wrap;rounded=0;" parent="1" vertex="1">
          <mxGeometry x="-990" y="1858" width="40" height="30" as="geometry" />
        </mxCell>
        <mxCell id="O3D1N8Hfds_VMY7Xwt8E-166" value="&lt;b&gt;&lt;font color=&quot;#333333&quot; style=&quot;font-size: 15px;&quot;&gt;YES&lt;/font&gt;&lt;/b&gt;" style="text;html=1;align=center;verticalAlign=middle;whiteSpace=wrap;rounded=0;" parent="1" vertex="1">
          <mxGeometry x="-1070" y="1778" width="40" height="30" as="geometry" />
        </mxCell>
        <mxCell id="O3D1N8Hfds_VMY7Xwt8E-167" value="&lt;b&gt;&lt;font color=&quot;#333333&quot; style=&quot;font-size: 15px;&quot;&gt;YES&lt;/font&gt;&lt;/b&gt;" style="text;html=1;align=center;verticalAlign=middle;whiteSpace=wrap;rounded=0;" parent="1" vertex="1">
          <mxGeometry x="-530" y="1863" width="40" height="30" as="geometry" />
        </mxCell>
        <mxCell id="O3D1N8Hfds_VMY7Xwt8E-169" value="&lt;b&gt;&lt;font color=&quot;#333333&quot; style=&quot;font-size: 15px;&quot;&gt;NO&lt;/font&gt;&lt;/b&gt;" style="text;html=1;align=center;verticalAlign=middle;whiteSpace=wrap;rounded=0;" parent="1" vertex="1">
          <mxGeometry x="-230" y="1778" width="40" height="30" as="geometry" />
        </mxCell>
        <mxCell id="O3D1N8Hfds_VMY7Xwt8E-170" value="&lt;b&gt;&lt;font color=&quot;#333333&quot; style=&quot;font-size: 15px;&quot;&gt;YES&lt;/font&gt;&lt;/b&gt;" style="text;html=1;align=center;verticalAlign=middle;whiteSpace=wrap;rounded=0;" parent="1" vertex="1">
          <mxGeometry x="-300" y="1858" width="40" height="30" as="geometry" />
        </mxCell>
        <mxCell id="O3D1N8Hfds_VMY7Xwt8E-171" value="&lt;font color=&quot;#333333&quot;&gt;&lt;span style=&quot;font-size: 15px;&quot;&gt;&lt;b&gt;로그인 &amp;amp;&lt;/b&gt;&lt;/span&gt;&lt;/font&gt;&lt;div&gt;&lt;font color=&quot;#333333&quot;&gt;&lt;span style=&quot;font-size: 15px;&quot;&gt;&lt;b&gt;회원가입&lt;/b&gt;&lt;/span&gt;&lt;/font&gt;&lt;/div&gt;" style="text;html=1;align=center;verticalAlign=middle;whiteSpace=wrap;rounded=0;" parent="1" vertex="1">
          <mxGeometry x="-969" y="1576" width="100" height="30" as="geometry" />
        </mxCell>
        <mxCell id="O3D1N8Hfds_VMY7Xwt8E-172" value="&lt;font color=&quot;#333333&quot;&gt;&lt;span style=&quot;font-size: 15px;&quot;&gt;&lt;b&gt;검색&lt;/b&gt;&lt;/span&gt;&lt;/font&gt;&lt;div&gt;&lt;font color=&quot;#333333&quot;&gt;&lt;span style=&quot;font-size: 15px;&quot;&gt;&lt;b&gt;기록&lt;/b&gt;&lt;/span&gt;&lt;/font&gt;&lt;/div&gt;" style="text;html=1;align=center;verticalAlign=middle;whiteSpace=wrap;rounded=0;" parent="1" vertex="1">
          <mxGeometry x="-750" y="1576" width="63" height="30" as="geometry" />
        </mxCell>
        <mxCell id="O3D1N8Hfds_VMY7Xwt8E-173" value="&lt;font color=&quot;#333333&quot;&gt;&lt;span style=&quot;font-size: 15px;&quot;&gt;&lt;b&gt;작가 목록&lt;/b&gt;&lt;/span&gt;&lt;/font&gt;&lt;div&gt;&lt;font color=&quot;#333333&quot;&gt;&lt;span style=&quot;font-size: 15px;&quot;&gt;&lt;b&gt;확인&lt;/b&gt;&lt;/span&gt;&lt;/font&gt;&lt;/div&gt;" style="text;html=1;align=left;verticalAlign=middle;whiteSpace=wrap;rounded=0;" parent="1" vertex="1">
          <mxGeometry x="-520.5" y="1576" width="80" height="30" as="geometry" />
        </mxCell>
        <mxCell id="O3D1N8Hfds_VMY7Xwt8E-174" value="&lt;font color=&quot;#333333&quot;&gt;&lt;span style=&quot;font-size: 15px;&quot;&gt;&lt;b&gt;작품&lt;/b&gt;&lt;/span&gt;&lt;/font&gt;&lt;div&gt;&lt;font color=&quot;#333333&quot;&gt;&lt;span style=&quot;font-size: 15px;&quot;&gt;&lt;b&gt;확인&lt;/b&gt;&lt;/span&gt;&lt;/font&gt;&lt;/div&gt;" style="text;html=1;align=center;verticalAlign=middle;whiteSpace=wrap;rounded=0;" parent="1" vertex="1">
          <mxGeometry x="-311.5" y="1576" width="51.5" height="30" as="geometry" />
        </mxCell>
        <mxCell id="O3D1N8Hfds_VMY7Xwt8E-124" value="&lt;span style=&quot;color: rgba(0, 0, 0, 0); font-family: monospace; font-size: 0px; text-align: start; text-wrap: nowrap;&quot;&gt;%3CmxGraphModel%3E%3Croot%3E%3CmxCell%20id%3D%220%22%2F%3E%3CmxCell%20id%3D%221%22%20parent%3D%220%22%2F%3E%3CmxCell%20id%3D%222%22%20value%3D%22%26lt%3Bb%26gt%3BBOOK_LOG%26lt%3B%2Fb%26gt%3B%22%20style%3D%22swimlane%3BfontStyle%3D0%3BchildLayout%3DstackLayout%3Bhorizontal%3D1%3BstartSize%3D26%3BfillColor%3Dnone%3BhorizontalStack%3D0%3BresizeParent%3D1%3BresizeParentMax%3D0%3BresizeLast%3D0%3Bcollapsible%3D1%3BmarginBottom%3D0%3Bhtml%3D1%3BfontSize%3D20%3B%22%20vertex%3D%221%22%20parent%3D%221%22%3E%3CmxGeometry%20x%3D%22-375.6818181818182%22%20y%3D%22561%22%20width%3D%22151.36363636363637%22%20height%3D%2296%22%20as%3D%22geometry%22%2F%3E%3C%2FmxCell%3E%3CmxCell%20id%3D%223%22%20value%3D%22ISBN%22%20style%3D%22text%3BstrokeColor%3Dnone%3BfillColor%3Dnone%3Balign%3Dleft%3BverticalAlign%3Dtop%3BspacingLeft%3D4%3BspacingRight%3D4%3Boverflow%3Dhidden%3Brotatable%3D0%3Bpoints%3D%5B%5B0%2C0.5%5D%2C%5B1%2C0.5%5D%5D%3BportConstraint%3Deastwest%3BwhiteSpace%3Dwrap%3Bhtml%3D1%3BfontSize%3D20%3BfontStyle%3D1%22%20vertex%3D%221%22%20parent%3D%222%22%3E%3CmxGeometry%20y%3D%2226%22%20width%3D%22151.36363636363637%22%20height%3D%2235%22%20as%3D%22geometry%22%2F%3E%3C%2FmxCell%3E%3CmxCell%20id%3D%224%22%20value%3D%22.%20.%20.%22%20style%3D%22text%3BstrokeColor%3Dnone%3BfillColor%3Dnone%3Balign%3Dleft%3BverticalAlign%3Dtop%3BspacingLeft%3D4%3BspacingRight%3D4%3Boverflow%3Dhidden%3Brotatable%3D0%3Bpoints%3D%5B%5B0%2C0.5%5D%2C%5B1%2C0.5%5D%5D%3BportConstraint%3Deastwest%3BwhiteSpace%3Dwrap%3Bhtml%3D1%3BfontSize%3D20%3BfontStyle%3D1%22%20vertex%3D%221%22%20parent%3D%222%22%3E%3CmxGeometry%20y%3D%2261%22%20width%3D%22151.36363636363637%22%20height%3D%2235%22%20as%3D%22geometry%22%2F%3E%3C%2FmxCell%3E%3C%2Froot%3E%3C%2FmxGraphModel%3E&lt;/span&gt;" style="shape=datastore;whiteSpace=wrap;html=1;" parent="1" vertex="1">
          <mxGeometry x="-1519" y="1565" width="150" height="172" as="geometry" />
        </mxCell>
        <mxCell id="O3D1N8Hfds_VMY7Xwt8E-125" value="ART" style="text;html=1;align=center;verticalAlign=middle;whiteSpace=wrap;rounded=0;fontSize=20;fontStyle=1" parent="1" vertex="1">
          <mxGeometry x="-1494" y="1569" width="100" height="32" as="geometry" />
        </mxCell>
        <mxCell id="O3D1N8Hfds_VMY7Xwt8E-126" value="&lt;ul style=&quot;font-size: 20px;&quot;&gt;&lt;li style=&quot;font-size: 20px;&quot;&gt;USER&lt;/li&gt;&lt;li style=&quot;font-size: 20px;&quot;&gt;HISTORY&lt;/li&gt;&lt;li style=&quot;font-size: 20px;&quot;&gt;ARTIST&lt;/li&gt;&lt;/ul&gt;" style="text;strokeColor=none;fillColor=none;html=1;whiteSpace=wrap;verticalAlign=middle;overflow=hidden;fontSize=20;fontStyle=1" parent="1" vertex="1">
          <mxGeometry x="-1524" y="1618" width="145" height="105" as="geometry" />
        </mxCell>
        <mxCell id="O3D1N8Hfds_VMY7Xwt8E-79" value="[ 작품 확인 ]&lt;div style=&quot;font-size: 20px;&quot;&gt;페이지&lt;/div&gt;" style="rounded=1;whiteSpace=wrap;html=1;fontSize=20;fontStyle=1" parent="1" vertex="1">
          <mxGeometry x="-396.5" y="1642" width="185" height="60" as="geometry" />
        </mxCell>
        <mxCell id="O3D1N8Hfds_VMY7Xwt8E-78" value="[ 작가 목록 확인 ]&lt;div style=&quot;font-size: 20px;&quot;&gt;페이지&lt;/div&gt;" style="rounded=1;whiteSpace=wrap;html=1;fontSize=20;fontStyle=1" parent="1" vertex="1">
          <mxGeometry x="-832.5" y="1642" width="185" height="60" as="geometry" />
        </mxCell>
        <mxCell id="O3D1N8Hfds_VMY7Xwt8E-76" value="[ 검색 기록 ]&lt;div style=&quot;font-size: 20px;&quot;&gt;페이지&lt;/div&gt;" style="rounded=1;whiteSpace=wrap;html=1;fontSize=20;fontStyle=1" parent="1" vertex="1">
          <mxGeometry x="-620" y="1642" width="185" height="60" as="geometry" />
        </mxCell>
        <mxCell id="N7wIYfbzn6Of7ngzT6N6-2" value="&lt;b&gt;&lt;font color=&quot;#333333&quot; style=&quot;font-size: 15px;&quot;&gt;NO&lt;/font&gt;&lt;/b&gt;" style="text;html=1;align=center;verticalAlign=middle;whiteSpace=wrap;rounded=0;" vertex="1" parent="1">
          <mxGeometry x="-453" y="1780" width="40" height="30" as="geometry" />
        </mxCell>
      </root>
    </mxGraphModel>
  </diagram>
</mxfile>
